<?xml version="1.0" encoding="utf-8" standalone="no"?>
<!DOCTYPE svg PUBLIC "-//W3C//DTD SVG 1.1//EN"
  "http://www.w3.org/Graphics/SVG/1.1/DTD/svg11.dtd">
<svg xmlns:xlink="http://www.w3.org/1999/xlink" width="615.002934pt" height="280.8pt" viewBox="0 0 615.002934 280.8" xmlns="http://www.w3.org/2000/svg" version="1.1">
 <metadata>
  <rdf:RDF xmlns:dc="http://purl.org/dc/elements/1.1/" xmlns:cc="http://creativecommons.org/ns#" xmlns:rdf="http://www.w3.org/1999/02/22-rdf-syntax-ns#">
   <cc:Work>
    <dc:type rdf:resource="http://purl.org/dc/dcmitype/StillImage"/>
    <dc:date>2024-09-25T17:06:35.890966</dc:date>
    <dc:format>image/svg+xml</dc:format>
    <dc:creator>
     <cc:Agent>
      <dc:title>Matplotlib v3.8.4, https://matplotlib.org/</dc:title>
     </cc:Agent>
    </dc:creator>
   </cc:Work>
  </rdf:RDF>
 </metadata>
 <defs>
  <style type="text/css">*{stroke-linejoin: round; stroke-linecap: butt}</style>
 </defs>
 <g id="figure_1">
  <g id="patch_1">
   <path d="M 0 280.8 
L 615.002934 280.8 
L 615.002934 0 
L 0 0 
z
" style="fill: #ffffff"/>
  </g>
  <g id="axes_1">
   <g id="patch_2">
    <path d="M 161.602934 140.4 
C 161.602934 130.261996 159.605968 120.222572 155.726322 110.856278 
C 151.846676 101.489983 146.159799 92.97897 138.991148 85.810319 
C 131.822497 78.641668 123.311484 72.954791 113.945189 69.075145 
C 104.578895 65.195499 94.539471 63.198533 84.401467 63.198533 
C 74.263463 63.198533 64.224039 65.195499 54.857745 69.075145 
C 45.49145 72.954791 36.980437 78.641668 29.811786 85.810319 
C 22.643135 92.97897 16.956258 101.489983 13.076612 110.856278 
C 9.196966 120.222572 7.2 130.261996 7.2 140.4 
C 7.2 150.538004 9.196966 160.577428 13.076612 169.943722 
C 16.956258 179.310017 22.643135 187.82103 29.811786 194.989681 
C 36.980437 202.158332 45.49145 207.845209 54.857745 211.724855 
C 64.224039 215.604501 74.263463 217.601467 84.401467 217.601467 
C 94.539471 217.601467 104.578895 215.604501 113.945189 211.724855 
C 123.311484 207.845209 131.822497 202.158332 138.991148 194.989681 
C 146.159799 187.82103 151.846676 179.310017 155.726322 169.943722 
C 159.605968 160.577428 161.602934 150.538004 161.602934 140.4 
M 84.401467 140.4 
C 84.401467 140.4 84.401467 140.4 84.401467 140.4 
C 84.401467 140.4 84.401467 140.4 84.401467 140.4 
C 84.401467 140.4 84.401467 140.4 84.401467 140.4 
C 84.401467 140.4 84.401467 140.4 84.401467 140.4 
C 84.401467 140.4 84.401467 140.4 84.401467 140.4 
C 84.401467 140.4 84.401467 140.4 84.401467 140.4 
C 84.401467 140.4 84.401467 140.4 84.401467 140.4 
C 84.401467 140.4 84.401467 140.4 84.401467 140.4 
C 84.401467 140.4 84.401467 140.4 84.401467 140.4 
C 84.401467 140.4 84.401467 140.4 84.401467 140.4 
C 84.401467 140.4 84.401467 140.4 84.401467 140.4 
C 84.401467 140.4 84.401467 140.4 84.401467 140.4 
C 84.401467 140.4 84.401467 140.4 84.401467 140.4 
C 84.401467 140.4 84.401467 140.4 84.401467 140.4 
C 84.401467 140.4 84.401467 140.4 84.401467 140.4 
C 84.401467 140.4 84.401467 140.4 84.401467 140.4 
z
" style="fill: #191970"/>
   </g>
   <g id="matplotlib.axis_1">
    <g id="xtick_1"/>
    <g id="xtick_2"/>
    <g id="xtick_3"/>
    <g id="xtick_4"/>
    <g id="xtick_5"/>
    <g id="xtick_6"/>
    <g id="xtick_7"/>
    <g id="xtick_8"/>
   </g>
   <g id="matplotlib.axis_2">
    <g id="ytick_1"/>
    <g id="ytick_2"/>
    <g id="ytick_3"/>
    <g id="ytick_4"/>
   </g>
   <g id="line2d_1">
    <path d="M 84.401467 140.4 
L 81.750738 132.241894 
L 79.100008 124.083787 
L 76.449279 115.925681 
L 73.798549 107.767574 
L 71.14782 99.609468 
L 68.49709 91.451361 
L 65.846361 83.293255 
L 63.195631 75.135148 
L 60.544902 66.977042 
" clip-path="url(#p6573b7c4bb)" style="fill: none; stroke: #004cff; stroke-width: 1.5; stroke-linecap: square"/>
   </g>
   <g id="line2d_2">
    <path d="M 84.401467 140.4 
L 87.052197 148.558106 
L 89.702926 156.716213 
L 92.353656 164.874319 
L 95.004385 173.032426 
L 97.655114 181.190532 
L 100.305844 189.348639 
L 102.956573 197.506745 
L 105.607303 205.664852 
L 108.258032 213.822958 
" clip-path="url(#p6573b7c4bb)" style="fill: none; stroke: #004cff; stroke-width: 1.5; stroke-linecap: square"/>
   </g>
   <g id="line2d_3">
    <path d="M 84.401467 140.4 
L 87.052197 132.241894 
L 89.702926 124.083787 
L 92.353656 115.925681 
L 95.004385 107.767574 
L 97.655114 99.609468 
L 100.305844 91.451361 
L 102.956573 83.293255 
L 105.607303 75.135148 
L 108.258032 66.977042 
" clip-path="url(#p6573b7c4bb)" style="fill: none; stroke: #004cff; stroke-width: 1.5; stroke-linecap: square"/>
   </g>
   <g id="line2d_4">
    <path d="M 84.401467 140.4 
L 81.750738 148.558106 
L 79.100008 156.716213 
L 76.449279 164.874319 
L 73.798549 173.032426 
L 71.14782 181.190532 
L 68.49709 189.348639 
L 65.846361 197.506745 
L 63.195631 205.664852 
L 60.544902 213.822958 
" clip-path="url(#p6573b7c4bb)" style="fill: none; stroke: #004cff; stroke-width: 1.5; stroke-linecap: square"/>
   </g>
   <g id="line2d_5">
    <path d="M 84.401467 140.4 
L 81.327408 132.391802 
L 78.253349 124.383605 
L 75.17929 116.375407 
L 72.105231 108.36721 
L 69.031172 100.359012 
L 65.957113 92.350814 
L 62.883054 84.342617 
L 59.808995 76.334419 
L 56.734936 68.326221 
" clip-path="url(#p6573b7c4bb)" style="fill: none; stroke: #0064ff; stroke-width: 1.5; stroke-linecap: square"/>
   </g>
   <g id="line2d_6">
    <path d="M 84.401467 140.4 
L 87.475526 148.408198 
L 90.549585 156.416395 
L 93.623644 164.424593 
L 96.697703 172.43279 
L 99.771762 180.440988 
L 102.845821 188.449186 
L 105.91988 196.457383 
L 108.993939 204.465581 
L 112.067999 212.473779 
" clip-path="url(#p6573b7c4bb)" style="fill: none; stroke: #0064ff; stroke-width: 1.5; stroke-linecap: square"/>
   </g>
   <g id="line2d_7">
    <path d="M 84.401467 140.4 
L 87.475526 132.391802 
L 90.549585 124.383605 
L 93.623644 116.375407 
L 96.697703 108.36721 
L 99.771762 100.359012 
L 102.845821 92.350814 
L 105.91988 84.342617 
L 108.993939 76.334419 
L 112.067999 68.326221 
" clip-path="url(#p6573b7c4bb)" style="fill: none; stroke: #0064ff; stroke-width: 1.5; stroke-linecap: square"/>
   </g>
   <g id="line2d_8">
    <path d="M 84.401467 140.4 
L 81.327408 148.408198 
L 78.253349 156.416395 
L 75.17929 164.424593 
L 72.105231 172.43279 
L 69.031172 180.440988 
L 65.957113 188.449186 
L 62.883054 196.457383 
L 59.808995 204.465581 
L 56.734936 212.473779 
" clip-path="url(#p6573b7c4bb)" style="fill: none; stroke: #0064ff; stroke-width: 1.5; stroke-linecap: square"/>
   </g>
   <g id="line2d_9">
    <path d="M 84.401467 140.4 
L 80.912504 132.563661 
L 77.423541 124.727322 
L 73.934579 116.890983 
L 70.445616 109.054645 
L 66.956653 101.218306 
L 63.46769 93.381967 
L 59.978727 85.545628 
L 56.489764 77.709289 
L 53.000802 69.87295 
" clip-path="url(#p6573b7c4bb)" style="fill: none; stroke: #0080ff; stroke-width: 1.5; stroke-linecap: square"/>
   </g>
   <g id="line2d_10">
    <path d="M 84.401467 140.4 
L 87.89043 148.236339 
L 91.379393 156.072678 
L 94.868356 163.909017 
L 98.357318 171.745355 
L 101.846281 179.581694 
L 105.335244 187.418033 
L 108.824207 195.254372 
L 112.31317 203.090711 
L 115.802133 210.92705 
" clip-path="url(#p6573b7c4bb)" style="fill: none; stroke: #0080ff; stroke-width: 1.5; stroke-linecap: square"/>
   </g>
   <g id="line2d_11">
    <path d="M 84.401467 140.4 
L 87.89043 132.563661 
L 91.379393 124.727322 
L 94.868356 116.890983 
L 98.357318 109.054645 
L 101.846281 101.218306 
L 105.335244 93.381967 
L 108.824207 85.545628 
L 112.31317 77.709289 
L 115.802133 69.87295 
" clip-path="url(#p6573b7c4bb)" style="fill: none; stroke: #0080ff; stroke-width: 1.5; stroke-linecap: square"/>
   </g>
   <g id="line2d_12">
    <path d="M 84.401467 140.4 
L 80.912504 148.236339 
L 77.423541 156.072678 
L 73.934579 163.909017 
L 70.445616 171.745355 
L 66.956653 179.581694 
L 63.46769 187.418033 
L 59.978727 195.254372 
L 56.489764 203.090711 
L 53.000802 210.92705 
" clip-path="url(#p6573b7c4bb)" style="fill: none; stroke: #0080ff; stroke-width: 1.5; stroke-linecap: square"/>
   </g>
   <g id="line2d_13">
    <path d="M 84.401467 140.4 
L 80.507163 132.756999 
L 76.61286 125.113998 
L 72.718556 117.470996 
L 68.824253 109.827995 
L 64.929949 102.184994 
L 61.035645 94.541993 
L 57.141342 86.898992 
L 53.247038 79.25599 
L 49.352734 71.612989 
" clip-path="url(#p6573b7c4bb)" style="fill: none; stroke: #0098ff; stroke-width: 1.5; stroke-linecap: square"/>
   </g>
   <g id="line2d_14">
    <path d="M 84.401467 140.4 
L 88.295771 148.043001 
L 92.190074 155.686002 
L 96.084378 163.329004 
L 99.978682 170.972005 
L 103.872985 178.615006 
L 107.767289 186.258007 
L 111.661592 193.901008 
L 115.555896 201.54401 
L 119.4502 209.187011 
" clip-path="url(#p6573b7c4bb)" style="fill: none; stroke: #0098ff; stroke-width: 1.5; stroke-linecap: square"/>
   </g>
   <g id="line2d_15">
    <path d="M 84.401467 140.4 
L 88.295771 132.756999 
L 92.190074 125.113998 
L 96.084378 117.470996 
L 99.978682 109.827995 
L 103.872985 102.184994 
L 107.767289 94.541993 
L 111.661592 86.898992 
L 115.555896 79.25599 
L 119.4502 71.612989 
" clip-path="url(#p6573b7c4bb)" style="fill: none; stroke: #0098ff; stroke-width: 1.5; stroke-linecap: square"/>
   </g>
   <g id="line2d_16">
    <path d="M 84.401467 140.4 
L 80.507163 148.043001 
L 76.61286 155.686002 
L 72.718556 163.329004 
L 68.824253 170.972005 
L 64.929949 178.615006 
L 61.035645 186.258007 
L 57.141342 193.901008 
L 53.247038 201.54401 
L 49.352734 209.187011 
" clip-path="url(#p6573b7c4bb)" style="fill: none; stroke: #0098ff; stroke-width: 1.5; stroke-linecap: square"/>
   </g>
   <g id="line2d_17">
    <path d="M 84.401467 140.4 
L 80.112497 132.971285 
L 75.823526 125.542571 
L 71.534556 118.113856 
L 67.245585 110.685141 
L 62.956615 103.256427 
L 58.667645 95.827712 
L 54.378674 88.398998 
L 50.089704 80.970283 
L 45.800734 73.541568 
" clip-path="url(#p6573b7c4bb)" style="fill: none; stroke: #00b0ff; stroke-width: 1.5; stroke-linecap: square"/>
   </g>
   <g id="line2d_18">
    <path d="M 84.401467 140.4 
L 88.690437 147.828715 
L 92.979408 155.257429 
L 97.268378 162.686144 
L 101.557349 170.114859 
L 105.846319 177.543573 
L 110.135289 184.972288 
L 114.42426 192.401002 
L 118.71323 199.829717 
L 123.002201 207.258432 
" clip-path="url(#p6573b7c4bb)" style="fill: none; stroke: #00b0ff; stroke-width: 1.5; stroke-linecap: square"/>
   </g>
   <g id="line2d_19">
    <path d="M 84.401467 140.4 
L 88.690437 132.971285 
L 92.979408 125.542571 
L 97.268378 118.113856 
L 101.557349 110.685141 
L 105.846319 103.256427 
L 110.135289 95.827712 
L 114.42426 88.398998 
L 118.71323 80.970283 
L 123.002201 73.541568 
" clip-path="url(#p6573b7c4bb)" style="fill: none; stroke: #00b0ff; stroke-width: 1.5; stroke-linecap: square"/>
   </g>
   <g id="line2d_20">
    <path d="M 84.401467 140.4 
L 80.112497 147.828715 
L 75.823526 155.257429 
L 71.534556 162.686144 
L 67.245585 170.114859 
L 62.956615 177.543573 
L 58.667645 184.972288 
L 54.378674 192.401002 
L 50.089704 199.829717 
L 45.800734 207.258432 
" clip-path="url(#p6573b7c4bb)" style="fill: none; stroke: #00b0ff; stroke-width: 1.5; stroke-linecap: square"/>
   </g>
   <g id="line2d_21">
    <path d="M 84.401467 140.4 
L 79.729586 133.205934 
L 75.057704 126.011867 
L 70.385823 118.817801 
L 65.713941 111.623734 
L 61.04206 104.429668 
L 56.370179 97.235601 
L 51.698297 90.041535 
L 47.026416 82.847468 
L 42.354535 75.653402 
" clip-path="url(#p6573b7c4bb)" style="fill: none; stroke: #00ccff; stroke-width: 1.5; stroke-linecap: square"/>
   </g>
   <g id="line2d_22">
    <path d="M 84.401467 140.4 
L 89.073348 147.594066 
L 93.74523 154.788133 
L 98.417111 161.982199 
L 103.088993 169.176266 
L 107.760874 176.370332 
L 112.432755 183.564399 
L 117.104637 190.758465 
L 121.776518 197.952532 
L 126.4484 205.146598 
" clip-path="url(#p6573b7c4bb)" style="fill: none; stroke: #00ccff; stroke-width: 1.5; stroke-linecap: square"/>
   </g>
   <g id="line2d_23">
    <path d="M 84.401467 140.4 
L 89.073348 133.205934 
L 93.74523 126.011867 
L 98.417111 118.817801 
L 103.088993 111.623734 
L 107.760874 104.429668 
L 112.432755 97.235601 
L 117.104637 90.041535 
L 121.776518 82.847468 
L 126.4484 75.653402 
" clip-path="url(#p6573b7c4bb)" style="fill: none; stroke: #00ccff; stroke-width: 1.5; stroke-linecap: square"/>
   </g>
   <g id="line2d_24">
    <path d="M 84.401467 140.4 
L 79.729586 147.594066 
L 75.057704 154.788133 
L 70.385823 161.982199 
L 65.713941 169.176266 
L 61.04206 176.370332 
L 56.370179 183.564399 
L 51.698297 190.758465 
L 47.026416 197.952532 
L 42.354535 205.146598 
" clip-path="url(#p6573b7c4bb)" style="fill: none; stroke: #00ccff; stroke-width: 1.5; stroke-linecap: square"/>
   </g>
   <g id="line2d_25">
    <path d="M 84.401467 140.4 
L 79.35948 133.4603 
L 74.317493 126.5206 
L 69.275506 119.5809 
L 64.233519 112.641201 
L 59.191532 105.701501 
L 54.149545 98.761801 
L 49.107557 91.822101 
L 44.06557 84.882401 
L 39.023583 77.942701 
" clip-path="url(#p6573b7c4bb)" style="fill: none; stroke: #00e4f8; stroke-width: 1.5; stroke-linecap: square"/>
   </g>
   <g id="line2d_26">
    <path d="M 84.401467 140.4 
L 89.443454 147.3397 
L 94.485441 154.2794 
L 99.527428 161.2191 
L 104.569415 168.158799 
L 109.611403 175.098499 
L 114.65339 182.038199 
L 119.695377 188.977899 
L 124.737364 195.917599 
L 129.779351 202.857299 
" clip-path="url(#p6573b7c4bb)" style="fill: none; stroke: #00e4f8; stroke-width: 1.5; stroke-linecap: square"/>
   </g>
   <g id="line2d_27">
    <path d="M 84.401467 140.4 
L 89.443454 133.4603 
L 94.485441 126.5206 
L 99.527428 119.5809 
L 104.569415 112.641201 
L 109.611403 105.701501 
L 114.65339 98.761801 
L 119.695377 91.822101 
L 124.737364 84.882401 
L 129.779351 77.942701 
" clip-path="url(#p6573b7c4bb)" style="fill: none; stroke: #00e4f8; stroke-width: 1.5; stroke-linecap: square"/>
   </g>
   <g id="line2d_28">
    <path d="M 84.401467 140.4 
L 79.35948 147.3397 
L 74.317493 154.2794 
L 69.275506 161.2191 
L 64.233519 168.158799 
L 59.191532 175.098499 
L 54.149545 182.038199 
L 49.107557 188.977899 
L 44.06557 195.917599 
L 39.023583 202.857299 
" clip-path="url(#p6573b7c4bb)" style="fill: none; stroke: #00e4f8; stroke-width: 1.5; stroke-linecap: square"/>
   </g>
   <g id="line2d_29">
    <path d="M 84.401467 140.4 
L 79.003194 133.733688 
L 73.604921 127.067376 
L 68.206648 120.401064 
L 62.808375 113.734752 
L 57.410102 107.06844 
L 52.011829 100.402128 
L 46.613556 93.735816 
L 41.215283 87.069504 
L 35.81701 80.403192 
" clip-path="url(#p6573b7c4bb)" style="fill: none; stroke: #16ffe1; stroke-width: 1.5; stroke-linecap: square"/>
   </g>
   <g id="line2d_30">
    <path d="M 84.401467 140.4 
L 89.79974 147.066312 
L 95.198013 153.732624 
L 100.596286 160.398936 
L 105.994559 167.065248 
L 111.392832 173.73156 
L 116.791105 180.397872 
L 122.189378 187.064184 
L 127.587651 193.730496 
L 132.985925 200.396808 
" clip-path="url(#p6573b7c4bb)" style="fill: none; stroke: #16ffe1; stroke-width: 1.5; stroke-linecap: square"/>
   </g>
   <g id="line2d_31">
    <path d="M 84.401467 140.4 
L 89.79974 133.733688 
L 95.198013 127.067376 
L 100.596286 120.401064 
L 105.994559 113.734752 
L 111.392832 107.06844 
L 116.791105 100.402128 
L 122.189378 93.735816 
L 127.587651 87.069504 
L 132.985925 80.403192 
" clip-path="url(#p6573b7c4bb)" style="fill: none; stroke: #16ffe1; stroke-width: 1.5; stroke-linecap: square"/>
   </g>
   <g id="line2d_32">
    <path d="M 84.401467 140.4 
L 79.003194 147.066312 
L 73.604921 153.732624 
L 68.206648 160.398936 
L 62.808375 167.065248 
L 57.410102 173.73156 
L 52.011829 180.397872 
L 46.613556 187.064184 
L 41.215283 193.730496 
L 35.81701 200.396808 
" clip-path="url(#p6573b7c4bb)" style="fill: none; stroke: #16ffe1; stroke-width: 1.5; stroke-linecap: square"/>
   </g>
   <g id="line2d_33">
    <path d="M 84.401467 140.4 
L 78.661704 134.025348 
L 72.921942 127.650695 
L 67.182179 121.276043 
L 61.442416 114.901391 
L 55.702653 108.526738 
L 49.962891 102.152086 
L 44.223128 95.777434 
L 38.483365 89.402782 
L 32.743603 83.028129 
" clip-path="url(#p6573b7c4bb)" style="fill: none; stroke: #29ffce; stroke-width: 1.5; stroke-linecap: square"/>
   </g>
   <g id="line2d_34">
    <path d="M 84.401467 140.4 
L 90.14123 146.774652 
L 95.880993 153.149305 
L 101.620755 159.523957 
L 107.360518 165.898609 
L 113.100281 172.273262 
L 118.840043 178.647914 
L 124.579806 185.022566 
L 130.319569 191.397218 
L 136.059332 197.771871 
" clip-path="url(#p6573b7c4bb)" style="fill: none; stroke: #29ffce; stroke-width: 1.5; stroke-linecap: square"/>
   </g>
   <g id="line2d_35">
    <path d="M 84.401467 140.4 
L 90.14123 134.025348 
L 95.880993 127.650695 
L 101.620755 121.276043 
L 107.360518 114.901391 
L 113.100281 108.526738 
L 118.840043 102.152086 
L 124.579806 95.777434 
L 130.319569 89.402782 
L 136.059332 83.028129 
" clip-path="url(#p6573b7c4bb)" style="fill: none; stroke: #29ffce; stroke-width: 1.5; stroke-linecap: square"/>
   </g>
   <g id="line2d_36">
    <path d="M 84.401467 140.4 
L 78.661704 146.774652 
L 72.921942 153.149305 
L 67.182179 159.523957 
L 61.442416 165.898609 
L 55.702653 172.273262 
L 49.962891 178.647914 
L 44.223128 185.022566 
L 38.483365 191.397218 
L 32.743603 197.771871 
" clip-path="url(#p6573b7c4bb)" style="fill: none; stroke: #29ffce; stroke-width: 1.5; stroke-linecap: square"/>
   </g>
   <g id="line2d_37">
    <path d="M 84.401467 140.4 
L 78.335947 134.33448 
L 72.270427 128.26896 
L 66.204907 122.20344 
L 60.139387 116.13792 
L 54.073867 110.0724 
L 48.008346 104.006879 
L 41.942826 97.941359 
L 35.877306 91.875839 
L 29.811786 85.810319 
" clip-path="url(#p6573b7c4bb)" style="fill: none; stroke: #3cffba; stroke-width: 1.5; stroke-linecap: square"/>
   </g>
   <g id="line2d_38">
    <path d="M 84.401467 140.4 
L 90.466987 146.46552 
L 96.532507 152.53104 
L 102.598027 158.59656 
L 108.663547 164.66208 
L 114.729068 170.7276 
L 120.794588 176.793121 
L 126.860108 182.858641 
L 132.925628 188.924161 
L 138.991148 194.989681 
" clip-path="url(#p6573b7c4bb)" style="fill: none; stroke: #3cffba; stroke-width: 1.5; stroke-linecap: square"/>
   </g>
   <g id="line2d_39">
    <path d="M 84.401467 140.4 
L 90.466987 134.33448 
L 96.532507 128.26896 
L 102.598027 122.20344 
L 108.663547 116.13792 
L 114.729068 110.0724 
L 120.794588 104.006879 
L 126.860108 97.941359 
L 132.925628 91.875839 
L 138.991148 85.810319 
" clip-path="url(#p6573b7c4bb)" style="fill: none; stroke: #3cffba; stroke-width: 1.5; stroke-linecap: square"/>
   </g>
   <g id="line2d_40">
    <path d="M 84.401467 140.4 
L 78.335947 146.46552 
L 72.270427 152.53104 
L 66.204907 158.59656 
L 60.139387 164.66208 
L 54.073867 170.7276 
L 48.008346 176.793121 
L 41.942826 182.858641 
L 35.877306 188.924161 
L 29.811786 194.989681 
" clip-path="url(#p6573b7c4bb)" style="fill: none; stroke: #3cffba; stroke-width: 1.5; stroke-linecap: square"/>
   </g>
   <g id="line2d_41">
    <path d="M 84.401467 140.4 
L 78.026815 134.660237 
L 71.652162 128.920475 
L 65.27751 123.180712 
L 58.902858 117.440949 
L 52.528206 111.701186 
L 46.153553 105.961424 
L 39.778901 100.221661 
L 33.404249 94.481898 
L 27.029596 88.742136 
" clip-path="url(#p6573b7c4bb)" style="fill: none; stroke: #53ffa4; stroke-width: 1.5; stroke-linecap: square"/>
   </g>
   <g id="line2d_42">
    <path d="M 84.401467 140.4 
L 90.776119 146.139763 
L 97.150772 151.879525 
L 103.525424 157.619288 
L 109.900076 163.359051 
L 116.274729 169.098814 
L 122.649381 174.838576 
L 129.024033 180.578339 
L 135.398686 186.318102 
L 141.773338 192.057864 
" clip-path="url(#p6573b7c4bb)" style="fill: none; stroke: #53ffa4; stroke-width: 1.5; stroke-linecap: square"/>
   </g>
   <g id="line2d_43">
    <path d="M 84.401467 140.4 
L 90.776119 134.660237 
L 97.150772 128.920475 
L 103.525424 123.180712 
L 109.900076 117.440949 
L 116.274729 111.701186 
L 122.649381 105.961424 
L 129.024033 100.221661 
L 135.398686 94.481898 
L 141.773338 88.742136 
" clip-path="url(#p6573b7c4bb)" style="fill: none; stroke: #53ffa4; stroke-width: 1.5; stroke-linecap: square"/>
   </g>
   <g id="line2d_44">
    <path d="M 84.401467 140.4 
L 78.026815 146.139763 
L 71.652162 151.879525 
L 65.27751 157.619288 
L 58.902858 163.359051 
L 52.528206 169.098814 
L 46.153553 174.838576 
L 39.778901 180.578339 
L 33.404249 186.318102 
L 27.029596 192.057864 
" clip-path="url(#p6573b7c4bb)" style="fill: none; stroke: #53ffa4; stroke-width: 1.5; stroke-linecap: square"/>
   </g>
   <g id="line2d_45">
    <path d="M 84.401467 140.4 
L 77.735155 135.001727 
L 71.068843 129.603454 
L 64.402531 124.205181 
L 57.736219 118.806908 
L 51.069907 113.408635 
L 44.403595 108.010362 
L 37.737283 102.612089 
L 31.070971 97.213816 
L 24.404659 91.815543 
" clip-path="url(#p6573b7c4bb)" style="fill: none; stroke: #66ff90; stroke-width: 1.5; stroke-linecap: square"/>
   </g>
   <g id="line2d_46">
    <path d="M 84.401467 140.4 
L 91.067779 145.798273 
L 97.734091 151.196546 
L 104.400403 156.594819 
L 111.066715 161.993092 
L 117.733027 167.391365 
L 124.399339 172.789638 
L 131.065651 178.187911 
L 137.731963 183.586184 
L 144.398275 188.984457 
" clip-path="url(#p6573b7c4bb)" style="fill: none; stroke: #66ff90; stroke-width: 1.5; stroke-linecap: square"/>
   </g>
   <g id="line2d_47">
    <path d="M 84.401467 140.4 
L 91.067779 135.001727 
L 97.734091 129.603454 
L 104.400403 124.205181 
L 111.066715 118.806908 
L 117.733027 113.408635 
L 124.399339 108.010362 
L 131.065651 102.612089 
L 137.731963 97.213816 
L 144.398275 91.815543 
" clip-path="url(#p6573b7c4bb)" style="fill: none; stroke: #66ff90; stroke-width: 1.5; stroke-linecap: square"/>
   </g>
   <g id="line2d_48">
    <path d="M 84.401467 140.4 
L 77.735155 145.798273 
L 71.068843 151.196546 
L 64.402531 156.594819 
L 57.736219 161.993092 
L 51.069907 167.391365 
L 44.403595 172.789638 
L 37.737283 178.187911 
L 31.070971 183.586184 
L 24.404659 188.984457 
" clip-path="url(#p6573b7c4bb)" style="fill: none; stroke: #66ff90; stroke-width: 1.5; stroke-linecap: square"/>
   </g>
   <g id="line2d_49">
    <path d="M 84.401467 140.4 
L 77.461767 135.358013 
L 70.522067 130.316026 
L 63.582367 125.274039 
L 56.642668 120.232052 
L 49.702968 115.190065 
L 42.763268 110.148077 
L 35.823568 105.10609 
L 28.883868 100.064103 
L 21.944168 95.022116 
" clip-path="url(#p6573b7c4bb)" style="fill: none; stroke: #7dff7a; stroke-width: 1.5; stroke-linecap: square"/>
   </g>
   <g id="line2d_50">
    <path d="M 84.401467 140.4 
L 91.341167 145.441987 
L 98.280867 150.483974 
L 105.220567 155.525961 
L 112.160267 160.567948 
L 119.099966 165.609935 
L 126.039666 170.651923 
L 132.979366 175.69391 
L 139.919066 180.735897 
L 146.858766 185.777884 
" clip-path="url(#p6573b7c4bb)" style="fill: none; stroke: #7dff7a; stroke-width: 1.5; stroke-linecap: square"/>
   </g>
   <g id="line2d_51">
    <path d="M 84.401467 140.4 
L 91.341167 135.358013 
L 98.280867 130.316026 
L 105.220567 125.274039 
L 112.160267 120.232052 
L 119.099966 115.190065 
L 126.039666 110.148077 
L 132.979366 105.10609 
L 139.919066 100.064103 
L 146.858766 95.022116 
" clip-path="url(#p6573b7c4bb)" style="fill: none; stroke: #7dff7a; stroke-width: 1.5; stroke-linecap: square"/>
   </g>
   <g id="line2d_52">
    <path d="M 84.401467 140.4 
L 77.461767 145.441987 
L 70.522067 150.483974 
L 63.582367 155.525961 
L 56.642668 160.567948 
L 49.702968 165.609935 
L 42.763268 170.651923 
L 35.823568 175.69391 
L 28.883868 180.735897 
L 21.944168 185.777884 
" clip-path="url(#p6573b7c4bb)" style="fill: none; stroke: #7dff7a; stroke-width: 1.5; stroke-linecap: square"/>
   </g>
   <g id="line2d_53">
    <path d="M 84.401467 140.4 
L 77.207401 135.728119 
L 70.013334 131.056237 
L 62.819268 126.384356 
L 55.625201 121.712474 
L 48.431135 117.040593 
L 41.237068 112.368712 
L 34.043002 107.69683 
L 26.848935 103.024949 
L 19.654869 98.353067 
" clip-path="url(#p6573b7c4bb)" style="fill: none; stroke: #90ff66; stroke-width: 1.5; stroke-linecap: square"/>
   </g>
   <g id="line2d_54">
    <path d="M 84.401467 140.4 
L 91.595534 145.071881 
L 98.7896 149.743763 
L 105.983666 154.415644 
L 113.177733 159.087526 
L 120.371799 163.759407 
L 127.565866 168.431288 
L 134.759932 173.10317 
L 141.953999 177.775051 
L 149.148065 182.446933 
" clip-path="url(#p6573b7c4bb)" style="fill: none; stroke: #90ff66; stroke-width: 1.5; stroke-linecap: square"/>
   </g>
   <g id="line2d_55">
    <path d="M 84.401467 140.4 
L 91.595534 135.728119 
L 98.7896 131.056237 
L 105.983666 126.384356 
L 113.177733 121.712474 
L 120.371799 117.040593 
L 127.565866 112.368712 
L 134.759932 107.69683 
L 141.953999 103.024949 
L 149.148065 98.353067 
" clip-path="url(#p6573b7c4bb)" style="fill: none; stroke: #90ff66; stroke-width: 1.5; stroke-linecap: square"/>
   </g>
   <g id="line2d_56">
    <path d="M 84.401467 140.4 
L 77.207401 145.071881 
L 70.013334 149.743763 
L 62.819268 154.415644 
L 55.625201 159.087526 
L 48.431135 163.759407 
L 41.237068 168.431288 
L 34.043002 173.10317 
L 26.848935 177.775051 
L 19.654869 182.446933 
" clip-path="url(#p6573b7c4bb)" style="fill: none; stroke: #90ff66; stroke-width: 1.5; stroke-linecap: square"/>
   </g>
   <g id="line2d_57">
    <path d="M 84.401467 140.4 
L 76.972752 136.11103 
L 69.544038 131.822059 
L 62.115323 127.533089 
L 54.686609 123.244118 
L 47.257894 118.955148 
L 39.829179 114.666178 
L 32.400465 110.377207 
L 24.97175 106.088237 
L 17.543035 101.799266 
" clip-path="url(#p6573b7c4bb)" style="fill: none; stroke: #a4ff53; stroke-width: 1.5; stroke-linecap: square"/>
   </g>
   <g id="line2d_58">
    <path d="M 84.401467 140.4 
L 91.830182 144.68897 
L 99.258896 148.977941 
L 106.687611 153.266911 
L 114.116326 157.555882 
L 121.54504 161.844852 
L 128.973755 166.133822 
L 136.402469 170.422793 
L 143.831184 174.711763 
L 151.259899 179.000734 
" clip-path="url(#p6573b7c4bb)" style="fill: none; stroke: #a4ff53; stroke-width: 1.5; stroke-linecap: square"/>
   </g>
   <g id="line2d_59">
    <path d="M 84.401467 140.4 
L 91.830182 136.11103 
L 99.258896 131.822059 
L 106.687611 127.533089 
L 114.116326 123.244118 
L 121.54504 118.955148 
L 128.973755 114.666178 
L 136.402469 110.377207 
L 143.831184 106.088237 
L 151.259899 101.799266 
" clip-path="url(#p6573b7c4bb)" style="fill: none; stroke: #a4ff53; stroke-width: 1.5; stroke-linecap: square"/>
   </g>
   <g id="line2d_60">
    <path d="M 84.401467 140.4 
L 76.972752 144.68897 
L 69.544038 148.977941 
L 62.115323 153.266911 
L 54.686609 157.555882 
L 47.257894 161.844852 
L 39.829179 166.133822 
L 32.400465 170.422793 
L 24.97175 174.711763 
L 17.543035 179.000734 
" clip-path="url(#p6573b7c4bb)" style="fill: none; stroke: #a4ff53; stroke-width: 1.5; stroke-linecap: square"/>
   </g>
   <g id="line2d_61">
    <path d="M 84.401467 140.4 
L 76.758466 136.505696 
L 69.115465 132.611393 
L 61.472463 128.717089 
L 53.829462 124.822786 
L 46.186461 120.928482 
L 38.54346 117.034178 
L 30.900459 113.139875 
L 23.257457 109.245571 
L 15.614456 105.351267 
" clip-path="url(#p6573b7c4bb)" style="fill: none; stroke: #baff3c; stroke-width: 1.5; stroke-linecap: square"/>
   </g>
   <g id="line2d_62">
    <path d="M 84.401467 140.4 
L 92.044468 144.294304 
L 99.687469 148.188607 
L 107.330471 152.082911 
L 114.973472 155.977214 
L 122.616473 159.871518 
L 130.259474 163.765822 
L 137.902475 167.660125 
L 145.545477 171.554429 
L 153.188478 175.448733 
" clip-path="url(#p6573b7c4bb)" style="fill: none; stroke: #baff3c; stroke-width: 1.5; stroke-linecap: square"/>
   </g>
   <g id="line2d_63">
    <path d="M 84.401467 140.4 
L 92.044468 136.505696 
L 99.687469 132.611393 
L 107.330471 128.717089 
L 114.973472 124.822786 
L 122.616473 120.928482 
L 130.259474 117.034178 
L 137.902475 113.139875 
L 145.545477 109.245571 
L 153.188478 105.351267 
" clip-path="url(#p6573b7c4bb)" style="fill: none; stroke: #baff3c; stroke-width: 1.5; stroke-linecap: square"/>
   </g>
   <g id="line2d_64">
    <path d="M 84.401467 140.4 
L 76.758466 144.294304 
L 69.115465 148.188607 
L 61.472463 152.082911 
L 53.829462 155.977214 
L 46.186461 159.871518 
L 38.54346 163.765822 
L 30.900459 167.660125 
L 23.257457 171.554429 
L 15.614456 175.448733 
" clip-path="url(#p6573b7c4bb)" style="fill: none; stroke: #baff3c; stroke-width: 1.5; stroke-linecap: square"/>
   </g>
   <g id="line2d_65">
    <path d="M 84.401467 140.4 
L 76.565128 136.911037 
L 68.728789 133.422074 
L 60.892451 129.933111 
L 53.056112 126.444149 
L 45.219773 122.955186 
L 37.383434 119.466223 
L 29.547095 115.97726 
L 21.710756 112.488297 
L 13.874418 108.999334 
" clip-path="url(#p6573b7c4bb)" style="fill: none; stroke: #ceff29; stroke-width: 1.5; stroke-linecap: square"/>
   </g>
   <g id="line2d_66">
    <path d="M 84.401467 140.4 
L 92.237806 143.888963 
L 100.074145 147.377926 
L 107.910484 150.866889 
L 115.746822 154.355851 
L 123.583161 157.844814 
L 131.4195 161.333777 
L 139.255839 164.82274 
L 147.092178 168.311703 
L 154.928517 171.800666 
" clip-path="url(#p6573b7c4bb)" style="fill: none; stroke: #ceff29; stroke-width: 1.5; stroke-linecap: square"/>
   </g>
   <g id="line2d_67">
    <path d="M 84.401467 140.4 
L 92.237806 136.911037 
L 100.074145 133.422074 
L 107.910484 129.933111 
L 115.746822 126.444149 
L 123.583161 122.955186 
L 131.4195 119.466223 
L 139.255839 115.97726 
L 147.092178 112.488297 
L 154.928517 108.999334 
" clip-path="url(#p6573b7c4bb)" style="fill: none; stroke: #ceff29; stroke-width: 1.5; stroke-linecap: square"/>
   </g>
   <g id="line2d_68">
    <path d="M 84.401467 140.4 
L 76.565128 143.888963 
L 68.728789 147.377926 
L 60.892451 150.866889 
L 53.056112 154.355851 
L 45.219773 157.844814 
L 37.383434 161.333777 
L 29.547095 164.82274 
L 21.710756 168.311703 
L 13.874418 171.800666 
" clip-path="url(#p6573b7c4bb)" style="fill: none; stroke: #ceff29; stroke-width: 1.5; stroke-linecap: square"/>
   </g>
   <g id="line2d_69">
    <path d="M 84.401467 140.4 
L 76.393269 137.325941 
L 68.385072 134.251882 
L 60.376874 131.177823 
L 52.368677 128.103764 
L 44.360479 125.029705 
L 36.352281 121.955646 
L 28.344084 118.881587 
L 20.335886 115.807528 
L 12.327689 112.733469 
" clip-path="url(#p6573b7c4bb)" style="fill: none; stroke: #e4ff13; stroke-width: 1.5; stroke-linecap: square"/>
   </g>
   <g id="line2d_70">
    <path d="M 84.401467 140.4 
L 92.409665 143.474059 
L 100.417862 146.548118 
L 108.42606 149.622177 
L 116.434258 152.696236 
L 124.442455 155.770295 
L 132.450653 158.844354 
L 140.45885 161.918413 
L 148.467048 164.992472 
L 156.475246 168.066531 
" clip-path="url(#p6573b7c4bb)" style="fill: none; stroke: #e4ff13; stroke-width: 1.5; stroke-linecap: square"/>
   </g>
   <g id="line2d_71">
    <path d="M 84.401467 140.4 
L 92.409665 137.325941 
L 100.417862 134.251882 
L 108.42606 131.177823 
L 116.434258 128.103764 
L 124.442455 125.029705 
L 132.450653 121.955646 
L 140.45885 118.881587 
L 148.467048 115.807528 
L 156.475246 112.733469 
" clip-path="url(#p6573b7c4bb)" style="fill: none; stroke: #e4ff13; stroke-width: 1.5; stroke-linecap: square"/>
   </g>
   <g id="line2d_72">
    <path d="M 84.401467 140.4 
L 76.393269 143.474059 
L 68.385072 146.548118 
L 60.376874 149.622177 
L 52.368677 152.696236 
L 44.360479 155.770295 
L 36.352281 158.844354 
L 28.344084 161.918413 
L 20.335886 164.992472 
L 12.327689 168.066531 
" clip-path="url(#p6573b7c4bb)" style="fill: none; stroke: #e4ff13; stroke-width: 1.5; stroke-linecap: square"/>
   </g>
   <g id="line2d_73">
    <path d="M 84.401467 140.4 
L 76.243361 137.749271 
L 68.085254 135.098541 
L 59.927148 132.447812 
L 51.769041 129.797082 
L 43.610935 127.146353 
L 35.452828 124.495623 
L 27.294722 121.844894 
L 19.136615 119.194164 
L 10.978509 116.543435 
" clip-path="url(#p6573b7c4bb)" style="fill: none; stroke: #f8f500; stroke-width: 1.5; stroke-linecap: square"/>
   </g>
   <g id="line2d_74">
    <path d="M 84.401467 140.4 
L 92.559574 143.050729 
L 100.71768 145.701459 
L 108.875787 148.352188 
L 117.033893 151.002918 
L 125.191999 153.653647 
L 133.350106 156.304377 
L 141.508212 158.955106 
L 149.666319 161.605836 
L 157.824425 164.256565 
" clip-path="url(#p6573b7c4bb)" style="fill: none; stroke: #f8f500; stroke-width: 1.5; stroke-linecap: square"/>
   </g>
   <g id="line2d_75">
    <path d="M 84.401467 140.4 
L 92.559574 137.749271 
L 100.71768 135.098541 
L 108.875787 132.447812 
L 117.033893 129.797082 
L 125.191999 127.146353 
L 133.350106 124.495623 
L 141.508212 121.844894 
L 149.666319 119.194164 
L 157.824425 116.543435 
" clip-path="url(#p6573b7c4bb)" style="fill: none; stroke: #f8f500; stroke-width: 1.5; stroke-linecap: square"/>
   </g>
   <g id="line2d_76">
    <path d="M 84.401467 140.4 
L 76.243361 143.050729 
L 68.085254 145.701459 
L 59.927148 148.352188 
L 51.769041 151.002918 
L 43.610935 153.653647 
L 35.452828 156.304377 
L 27.294722 158.955106 
L 19.136615 161.605836 
L 10.978509 164.256565 
" clip-path="url(#p6573b7c4bb)" style="fill: none; stroke: #f8f500; stroke-width: 1.5; stroke-linecap: square"/>
   </g>
   <g id="line2d_77">
    <path d="M 84.401467 140.4 
L 76.115813 138.179866 
L 67.830158 135.959731 
L 59.544503 133.739597 
L 51.258849 131.519462 
L 42.973194 129.299328 
L 34.68754 127.079193 
L 26.401885 124.859059 
L 18.116231 122.638924 
L 9.830576 120.41879 
" clip-path="url(#p6573b7c4bb)" style="fill: none; stroke: #ffde00; stroke-width: 1.5; stroke-linecap: square"/>
   </g>
   <g id="line2d_78">
    <path d="M 84.401467 140.4 
L 92.687122 142.620134 
L 100.972776 144.840269 
L 109.258431 147.060403 
L 117.544085 149.280538 
L 125.82974 151.500672 
L 134.115394 153.720807 
L 142.401049 155.940941 
L 150.686703 158.161076 
L 158.972358 160.38121 
" clip-path="url(#p6573b7c4bb)" style="fill: none; stroke: #ffde00; stroke-width: 1.5; stroke-linecap: square"/>
   </g>
   <g id="line2d_79">
    <path d="M 84.401467 140.4 
L 92.687122 138.179866 
L 100.972776 135.959731 
L 109.258431 133.739597 
L 117.544085 131.519462 
L 125.82974 129.299328 
L 134.115394 127.079193 
L 142.401049 124.859059 
L 150.686703 122.638924 
L 158.972358 120.41879 
" clip-path="url(#p6573b7c4bb)" style="fill: none; stroke: #ffde00; stroke-width: 1.5; stroke-linecap: square"/>
   </g>
   <g id="line2d_80">
    <path d="M 84.401467 140.4 
L 76.115813 142.620134 
L 67.830158 144.840269 
L 59.544503 147.060403 
L 51.258849 149.280538 
L 42.973194 151.500672 
L 34.68754 153.720807 
L 26.401885 155.940941 
L 18.116231 158.161076 
L 9.830576 160.38121 
" clip-path="url(#p6573b7c4bb)" style="fill: none; stroke: #ffde00; stroke-width: 1.5; stroke-linecap: square"/>
   </g>
   <g id="line2d_81">
    <path d="M 84.401467 140.4 
L 76.010975 138.616546 
L 67.620483 136.833092 
L 59.22999 135.049637 
L 50.839498 133.266183 
L 42.449006 131.482729 
L 34.058514 129.699275 
L 25.668022 127.915821 
L 17.277529 126.132367 
L 8.887037 124.348912 
" clip-path="url(#p6573b7c4bb)" style="fill: none; stroke: #ffc400; stroke-width: 1.5; stroke-linecap: square"/>
   </g>
   <g id="line2d_82">
    <path d="M 84.401467 140.4 
L 92.791959 142.183454 
L 101.182451 143.966908 
L 109.572944 145.750363 
L 117.963436 147.533817 
L 126.353928 149.317271 
L 134.74442 151.100725 
L 143.134912 152.884179 
L 151.525405 154.667633 
L 159.915897 156.451088 
" clip-path="url(#p6573b7c4bb)" style="fill: none; stroke: #ffc400; stroke-width: 1.5; stroke-linecap: square"/>
   </g>
   <g id="line2d_83">
    <path d="M 84.401467 140.4 
L 92.791959 138.616546 
L 101.182451 136.833092 
L 109.572944 135.049637 
L 117.963436 133.266183 
L 126.353928 131.482729 
L 134.74442 129.699275 
L 143.134912 127.915821 
L 151.525405 126.132367 
L 159.915897 124.348912 
" clip-path="url(#p6573b7c4bb)" style="fill: none; stroke: #ffc400; stroke-width: 1.5; stroke-linecap: square"/>
   </g>
   <g id="line2d_84">
    <path d="M 84.401467 140.4 
L 76.010975 142.183454 
L 67.620483 143.966908 
L 59.22999 145.750363 
L 50.839498 147.533817 
L 42.449006 149.317271 
L 34.058514 151.100725 
L 25.668022 152.884179 
L 17.277529 154.667633 
L 8.887037 156.451088 
" clip-path="url(#p6573b7c4bb)" style="fill: none; stroke: #ffc400; stroke-width: 1.5; stroke-linecap: square"/>
   </g>
   <g id="line2d_85">
    <path d="M 84.401467 140.4 
L 75.929135 139.058114 
L 67.456803 137.716229 
L 58.984471 136.374343 
L 50.512139 135.032458 
L 42.039807 133.690572 
L 33.567474 132.348687 
L 25.095142 131.006801 
L 16.62281 129.664915 
L 8.150478 128.32303 
" clip-path="url(#p6573b7c4bb)" style="fill: none; stroke: #ffae00; stroke-width: 1.5; stroke-linecap: square"/>
   </g>
   <g id="line2d_86">
    <path d="M 84.401467 140.4 
L 92.873799 141.741886 
L 101.346131 143.083771 
L 109.818463 144.425657 
L 118.290795 145.767542 
L 126.763128 147.109428 
L 135.23546 148.451313 
L 143.707792 149.793199 
L 152.180124 151.135085 
L 160.652456 152.47697 
" clip-path="url(#p6573b7c4bb)" style="fill: none; stroke: #ffae00; stroke-width: 1.5; stroke-linecap: square"/>
   </g>
   <g id="line2d_87">
    <path d="M 84.401467 140.4 
L 92.873799 139.058114 
L 101.346131 137.716229 
L 109.818463 136.374343 
L 118.290795 135.032458 
L 126.763128 133.690572 
L 135.23546 132.348687 
L 143.707792 131.006801 
L 152.180124 129.664915 
L 160.652456 128.32303 
" clip-path="url(#p6573b7c4bb)" style="fill: none; stroke: #ffae00; stroke-width: 1.5; stroke-linecap: square"/>
   </g>
   <g id="line2d_88">
    <path d="M 84.401467 140.4 
L 75.929135 141.741886 
L 67.456803 143.083771 
L 58.984471 144.425657 
L 50.512139 145.767542 
L 42.039807 147.109428 
L 33.567474 148.451313 
L 25.095142 149.793199 
L 16.62281 151.135085 
L 8.150478 152.47697 
" clip-path="url(#p6573b7c4bb)" style="fill: none; stroke: #ffae00; stroke-width: 1.5; stroke-linecap: square"/>
   </g>
   <g id="line2d_89">
    <path d="M 84.401467 140.4 
L 75.870517 139.503361 
L 67.339567 138.606722 
L 58.808617 137.710083 
L 50.277667 136.813444 
L 41.746717 135.916805 
L 33.215767 135.020166 
L 24.684818 134.123527 
L 16.153868 133.226888 
L 7.622918 132.330249 
" clip-path="url(#p6573b7c4bb)" style="fill: none; stroke: #ff9400; stroke-width: 1.5; stroke-linecap: square"/>
   </g>
   <g id="line2d_90">
    <path d="M 84.401467 140.4 
L 92.932417 141.296639 
L 101.463367 142.193278 
L 109.994317 143.089917 
L 118.525267 143.986556 
L 127.056217 144.883195 
L 135.587167 145.779834 
L 144.118117 146.676473 
L 152.649066 147.573112 
L 161.180016 148.469751 
" clip-path="url(#p6573b7c4bb)" style="fill: none; stroke: #ff9400; stroke-width: 1.5; stroke-linecap: square"/>
   </g>
   <g id="line2d_91">
    <path d="M 84.401467 140.4 
L 92.932417 139.503361 
L 101.463367 138.606722 
L 109.994317 137.710083 
L 118.525267 136.813444 
L 127.056217 135.916805 
L 135.587167 135.020166 
L 144.118117 134.123527 
L 152.649066 133.226888 
L 161.180016 132.330249 
" clip-path="url(#p6573b7c4bb)" style="fill: none; stroke: #ff9400; stroke-width: 1.5; stroke-linecap: square"/>
   </g>
   <g id="line2d_92">
    <path d="M 84.401467 140.4 
L 75.870517 141.296639 
L 67.339567 142.193278 
L 58.808617 143.089917 
L 50.277667 143.986556 
L 41.746717 144.883195 
L 33.215767 145.779834 
L 24.684818 146.676473 
L 16.153868 147.573112 
L 7.622918 148.469751 
" clip-path="url(#p6573b7c4bb)" style="fill: none; stroke: #ff9400; stroke-width: 1.5; stroke-linecap: square"/>
   </g>
   <g id="line2d_93">
    <path d="M 84.401467 140.4 
L 75.835282 139.951065 
L 67.269097 139.502131 
L 58.702912 139.053196 
L 50.136727 138.604261 
L 41.570542 138.155326 
L 33.004357 137.706392 
L 24.438172 137.257457 
L 15.871987 136.808522 
L 7.305802 136.359587 
" clip-path="url(#p6573b7c4bb)" style="fill: none; stroke: #ff7e00; stroke-width: 1.5; stroke-linecap: square"/>
   </g>
   <g id="line2d_94">
    <path d="M 84.401467 140.4 
L 92.967652 140.848935 
L 101.533837 141.297869 
L 110.100022 141.746804 
L 118.666207 142.195739 
L 127.232392 142.644674 
L 135.798577 143.093608 
L 144.364762 143.542543 
L 152.930947 143.991478 
L 161.497132 144.440413 
" clip-path="url(#p6573b7c4bb)" style="fill: none; stroke: #ff7e00; stroke-width: 1.5; stroke-linecap: square"/>
   </g>
   <g id="line2d_95">
    <path d="M 84.401467 140.4 
L 92.967652 139.951065 
L 101.533837 139.502131 
L 110.100022 139.053196 
L 118.666207 138.604261 
L 127.232392 138.155326 
L 135.798577 137.706392 
L 144.364762 137.257457 
L 152.930947 136.808522 
L 161.497132 136.359587 
" clip-path="url(#p6573b7c4bb)" style="fill: none; stroke: #ff7e00; stroke-width: 1.5; stroke-linecap: square"/>
   </g>
   <g id="line2d_96">
    <path d="M 84.401467 140.4 
L 75.835282 140.848935 
L 67.269097 141.297869 
L 58.702912 141.746804 
L 50.136727 142.195739 
L 41.570542 142.644674 
L 33.004357 143.093608 
L 24.438172 143.542543 
L 15.871987 143.991478 
L 7.305802 144.440413 
" clip-path="url(#p6573b7c4bb)" style="fill: none; stroke: #ff7e00; stroke-width: 1.5; stroke-linecap: square"/>
   </g>
   <g id="line2d_97">
    <path d="M 84.401467 140.4 
L 75.823526 140.4 
L 67.245585 140.4 
L 58.667645 140.4 
L 50.089704 140.4 
L 41.511763 140.4 
L 32.933822 140.4 
L 24.355882 140.4 
L 15.777941 140.4 
L 7.2 140.4 
" clip-path="url(#p6573b7c4bb)" style="fill: none; stroke: #ff6800; stroke-width: 1.5; stroke-linecap: square"/>
   </g>
   <g id="line2d_98">
    <path d="M 84.401467 140.4 
L 92.979408 140.4 
L 101.557349 140.4 
L 110.135289 140.4 
L 118.71323 140.4 
L 127.291171 140.4 
L 135.869112 140.4 
L 144.447053 140.4 
L 153.024993 140.4 
L 161.602934 140.4 
" clip-path="url(#p6573b7c4bb)" style="fill: none; stroke: #ff6800; stroke-width: 1.5; stroke-linecap: square"/>
   </g>
   <g id="line2d_99">
    <path d="M 84.401467 140.4 
L 92.979408 140.4 
L 101.557349 140.4 
L 110.135289 140.4 
L 118.71323 140.4 
L 127.291171 140.4 
L 135.869112 140.4 
L 144.447053 140.4 
L 153.024993 140.4 
L 161.602934 140.4 
" clip-path="url(#p6573b7c4bb)" style="fill: none; stroke: #ff6800; stroke-width: 1.5; stroke-linecap: square"/>
   </g>
   <g id="line2d_100">
    <path d="M 84.401467 140.4 
L 75.823526 140.4 
L 67.245585 140.4 
L 58.667645 140.4 
L 50.089704 140.4 
L 41.511763 140.4 
L 32.933822 140.4 
L 24.355882 140.4 
L 15.777941 140.4 
L 7.2 140.4 
" clip-path="url(#p6573b7c4bb)" style="fill: none; stroke: #ff6800; stroke-width: 1.5; stroke-linecap: square"/>
   </g>
   <g id="patch_3">
    <path d="M 84.401467 63.198533 
C 74.263463 63.198533 64.224039 65.195499 54.857745 69.075145 
C 45.49145 72.954791 36.980437 78.641668 29.811786 85.810319 
C 22.643135 92.97897 16.956258 101.489983 13.076612 110.856278 
C 9.196966 120.222572 7.2 130.261996 7.2 140.4 
C 7.2 150.538004 9.196966 160.577428 13.076612 169.943722 
C 16.956258 179.310017 22.643135 187.82103 29.811786 194.989681 
C 36.980437 202.158332 45.49145 207.845209 54.857745 211.724855 
C 64.224039 215.604501 74.263463 217.601467 84.401467 217.601467 
C 94.539471 217.601467 104.578895 215.604501 113.945189 211.724855 
C 123.311484 207.845209 131.822497 202.158332 138.991148 194.989681 
C 146.159799 187.82103 151.846676 179.310017 155.726322 169.943722 
C 159.605968 160.577428 161.602934 150.538004 161.602934 140.4 
C 161.602934 130.261996 159.605968 120.222572 155.726322 110.856278 
C 151.846676 101.489983 146.159799 92.97897 138.991148 85.810319 
C 131.822497 78.641668 123.311484 72.954791 113.945189 69.075145 
C 104.578895 65.195499 94.539471 63.198533 84.401467 63.198533 
" style="fill: none; stroke: #000000; stroke-width: 0.8; stroke-linejoin: miter; stroke-linecap: square"/>
   </g>
  </g>
  <g id="axes_2">
   <g id="text_1">
    <!-- $ETSpy$ -->
    <g transform="translate(172.402934 193.68) scale(1.4 -1.4)">
     <defs>
      <path id="DejaVuSans-Oblique-45" d="M 1081 4666 
L 4031 4666 
L 3928 4134 
L 1606 4134 
L 1338 2753 
L 3566 2753 
L 3463 2222 
L 1234 2222 
L 909 531 
L 3284 531 
L 3181 0 
L 172 0 
L 1081 4666 
z
" transform="scale(0.015625)"/>
      <path id="DejaVuSans-Oblique-54" d="M 378 4666 
L 4325 4666 
L 4225 4134 
L 2559 4134 
L 1759 0 
L 1125 0 
L 1925 4134 
L 275 4134 
L 378 4666 
z
" transform="scale(0.015625)"/>
      <path id="DejaVuSans-Oblique-53" d="M 3859 4513 
L 3738 3897 
Q 3422 4066 3111 4152 
Q 2800 4238 2509 4238 
Q 1944 4238 1609 3991 
Q 1275 3744 1275 3334 
Q 1275 3109 1398 2989 
Q 1522 2869 2034 2731 
L 2413 2638 
Q 3053 2472 3303 2217 
Q 3553 1963 3553 1503 
Q 3553 797 2998 353 
Q 2444 -91 1538 -91 
Q 1166 -91 791 -17 
Q 416 56 38 206 
L 166 856 
Q 513 641 861 531 
Q 1209 422 1556 422 
Q 2147 422 2503 684 
Q 2859 947 2859 1369 
Q 2859 1650 2717 1795 
Q 2575 1941 2106 2059 
L 1728 2156 
Q 1081 2325 845 2545 
Q 609 2766 609 3163 
Q 609 3859 1145 4304 
Q 1681 4750 2541 4750 
Q 2875 4750 3203 4690 
Q 3531 4631 3859 4513 
z
" transform="scale(0.015625)"/>
      <path id="DejaVuSans-Oblique-70" d="M 3175 2156 
Q 3175 2616 2975 2859 
Q 2775 3103 2400 3103 
Q 2144 3103 1911 2972 
Q 1678 2841 1497 2591 
Q 1319 2344 1212 1994 
Q 1106 1644 1106 1300 
Q 1106 863 1306 627 
Q 1506 391 1875 391 
Q 2147 391 2380 519 
Q 2613 647 2778 891 
Q 2956 1147 3065 1494 
Q 3175 1841 3175 2156 
z
M 1394 2969 
Q 1625 3272 1939 3428 
Q 2253 3584 2638 3584 
Q 3175 3584 3472 3232 
Q 3769 2881 3769 2247 
Q 3769 1728 3584 1258 
Q 3400 788 3053 416 
Q 2822 169 2531 39 
Q 2241 -91 1919 -91 
Q 1547 -91 1294 64 
Q 1041 219 916 525 
L 556 -1331 
L -19 -1331 
L 922 3500 
L 1497 3500 
L 1394 2969 
z
" transform="scale(0.015625)"/>
      <path id="DejaVuSans-Oblique-79" d="M 1588 -325 
Q 1188 -997 936 -1164 
Q 684 -1331 294 -1331 
L -159 -1331 
L -63 -850 
L 269 -850 
Q 509 -850 678 -719 
Q 847 -588 1056 -206 
L 1234 128 
L 459 3500 
L 1069 3500 
L 1650 819 
L 3256 3500 
L 3859 3500 
L 1588 -325 
z
" transform="scale(0.015625)"/>
     </defs>
     <use xlink:href="#DejaVuSans-Oblique-45" transform="translate(0 0.78125)"/>
     <use xlink:href="#DejaVuSans-Oblique-54" transform="translate(63.183594 0.78125)"/>
     <use xlink:href="#DejaVuSans-Oblique-53" transform="translate(124.267578 0.78125)"/>
     <use xlink:href="#DejaVuSans-Oblique-70" transform="translate(187.744141 0.78125)"/>
     <use xlink:href="#DejaVuSans-Oblique-79" transform="translate(251.220703 0.78125)"/>
    </g>
   </g>
  </g>
 </g>
 <defs>
  <clipPath id="p6573b7c4bb">
   <path d="M 161.602934 140.4 
C 161.602934 130.261996 159.605968 120.222572 155.726322 110.856278 
C 151.846676 101.489983 146.159799 92.97897 138.991148 85.810319 
C 131.822497 78.641668 123.311484 72.954791 113.945189 69.075145 
C 104.578895 65.195499 94.539471 63.198533 84.401467 63.198533 
C 74.263463 63.198533 64.224039 65.195499 54.857745 69.075145 
C 45.49145 72.954791 36.980437 78.641668 29.811786 85.810319 
C 22.643135 92.97897 16.956258 101.489983 13.076612 110.856278 
C 9.196966 120.222572 7.2 130.261996 7.2 140.4 
C 7.2 150.538004 9.196966 160.577428 13.076612 169.943722 
C 16.956258 179.310017 22.643135 187.82103 29.811786 194.989681 
C 36.980437 202.158332 45.49145 207.845209 54.857745 211.724855 
C 64.224039 215.604501 74.263463 217.601467 84.401467 217.601467 
C 94.539471 217.601467 104.578895 215.604501 113.945189 211.724855 
C 123.311484 207.845209 131.822497 202.158332 138.991148 194.989681 
C 146.159799 187.82103 151.846676 179.310017 155.726322 169.943722 
C 159.605968 160.577428 161.602934 150.538004 161.602934 140.4 
M 84.401467 140.4 
C 84.401467 140.4 84.401467 140.4 84.401467 140.4 
C 84.401467 140.4 84.401467 140.4 84.401467 140.4 
C 84.401467 140.4 84.401467 140.4 84.401467 140.4 
C 84.401467 140.4 84.401467 140.4 84.401467 140.4 
C 84.401467 140.4 84.401467 140.4 84.401467 140.4 
C 84.401467 140.4 84.401467 140.4 84.401467 140.4 
C 84.401467 140.4 84.401467 140.4 84.401467 140.4 
C 84.401467 140.4 84.401467 140.4 84.401467 140.4 
C 84.401467 140.4 84.401467 140.4 84.401467 140.4 
C 84.401467 140.4 84.401467 140.4 84.401467 140.4 
C 84.401467 140.4 84.401467 140.4 84.401467 140.4 
C 84.401467 140.4 84.401467 140.4 84.401467 140.4 
C 84.401467 140.4 84.401467 140.4 84.401467 140.4 
C 84.401467 140.4 84.401467 140.4 84.401467 140.4 
C 84.401467 140.4 84.401467 140.4 84.401467 140.4 
C 84.401467 140.4 84.401467 140.4 84.401467 140.4 
z
"/>
  </clipPath>
 </defs>
</svg>
