<?xml version="1.0" encoding="UTF-8" standalone="no"?>
<svg
   width="601.72754pt"
   height="158.90334pt"
   viewBox="0 0 601.72754 158.90334"
   version="1.1"
   id="svg107"
   sodipodi:docname="etspy-banner-light.svg"
   inkscape:version="1.4 (e7c3feb100, 2024-10-09)"
   xmlns:inkscape="http://www.inkscape.org/namespaces/inkscape"
   xmlns:sodipodi="http://sodipodi.sourceforge.net/DTD/sodipodi-0.dtd"
   xmlns:xlink="http://www.w3.org/1999/xlink"
   xmlns="http://www.w3.org/2000/svg"
   xmlns:svg="http://www.w3.org/2000/svg"
   xmlns:rdf="http://www.w3.org/1999/02/22-rdf-syntax-ns#"
   xmlns:cc="http://creativecommons.org/ns#"
   xmlns:dc="http://purl.org/dc/elements/1.1/">
  <sodipodi:namedview
     id="namedview107"
     pagecolor="#ffffff"
     bordercolor="#000000"
     borderopacity="0.25"
     inkscape:showpageshadow="2"
     inkscape:pageopacity="0.0"
     inkscape:pagecheckerboard="0"
     inkscape:deskcolor="#d1d1d1"
     inkscape:document-units="pt"
     inkscape:zoom="0.99836585"
     inkscape:cx="191.31263"
     inkscape:cy="172.78235"
     inkscape:window-width="1920"
     inkscape:window-height="1172"
     inkscape:window-x="0"
     inkscape:window-y="0"
     inkscape:window-maximized="1"
     inkscape:current-layer="svg107" />
  <metadata
     id="metadata1">
    <rdf:RDF>
      <cc:Work>
        <dc:type
           rdf:resource="http://purl.org/dc/dcmitype/StillImage" />
        <dc:date>2024-09-25T17:06:35.890966</dc:date>
        <dc:format>image/svg+xml</dc:format>
        <dc:creator>
          <cc:Agent>
            <dc:title>Matplotlib v3.8.4, https://matplotlib.org/</dc:title>
          </cc:Agent>
        </dc:creator>
      </cc:Work>
    </rdf:RDF>
  </metadata>
  <defs
     id="defs1">
    <style
       type="text/css"
       id="style1">*{stroke-linejoin: round; stroke-linecap: butt}</style>
  </defs>
  <g
     id="figure_1"
     transform="translate(-6.8,-62.798533)">
    <g
       id="axes_1">
      <g
         id="patch_2">
        <path
           d="m 161.60293,140.4 c 0,-10.138 -1.99696,-20.17743 -5.87661,-29.54372 -3.87964,-9.3663 -9.56652,-17.87731 -16.73517,-25.045961 -7.16865,-7.168651 -15.67967,-12.855528 -25.04596,-16.735174 -9.36629,-3.879646 -19.405719,-5.876612 -29.543723,-5.876612 -10.138004,0 -20.177428,1.996966 -29.543722,5.876612 C 45.49145,72.954791 36.980437,78.641668 29.811786,85.810319 22.643135,92.97897 16.956258,101.48998 13.076612,110.85628 9.196966,120.22257 7.2,130.262 7.2,140.4 c 0,10.138 1.996966,20.17743 5.876612,29.54372 3.879646,9.3663 9.566523,17.87731 16.735174,25.04596 7.168651,7.16865 15.679664,12.85553 25.045959,16.73517 9.366294,3.87965 19.405718,5.87662 29.543722,5.87662 10.138004,0 20.177433,-1.99697 29.543723,-5.87662 9.36629,-3.87964 17.87731,-9.56652 25.04596,-16.73517 7.16865,-7.16865 12.85553,-15.67966 16.73517,-25.04596 3.87965,-9.36629 5.87661,-19.40572 5.87661,-29.54372 m -77.201463,0 c 0,0 0,0 0,0 0,0 0,0 0,0 0,0 0,0 0,0 0,0 0,0 0,0 0,0 0,0 0,0 0,0 0,0 0,0 0,0 0,0 0,0 0,0 0,0 0,0 0,0 0,0 0,0 0,0 0,0 0,0 0,0 0,0 0,0 0,0 0,0 0,0 0,0 0,0 0,0 0,0 0,0 0,0 z"
           style="fill:#191970"
           id="path2" />
      </g>
      <g
         id="matplotlib.axis_1">
        <g
           id="xtick_1" />
        <g
           id="xtick_2" />
        <g
           id="xtick_3" />
        <g
           id="xtick_4" />
        <g
           id="xtick_5" />
        <g
           id="xtick_6" />
        <g
           id="xtick_7" />
        <g
           id="xtick_8" />
      </g>
      <g
         id="matplotlib.axis_2">
        <g
           id="ytick_1" />
        <g
           id="ytick_2" />
        <g
           id="ytick_3" />
        <g
           id="ytick_4" />
      </g>
      <g
         id="line2d_1">
        <path
           d="m 84.401467,140.4 -2.650729,-8.15811 -2.65073,-8.1581 -2.650729,-8.15811 -2.65073,-8.15811 -2.650729,-8.158102 -2.65073,-8.158107 -2.650729,-8.158106 -2.65073,-8.158107 -2.650729,-8.158106"
           clip-path="url(#p6573b7c4bb)"
           style="fill:none;stroke:#004cff;stroke-width:1.5;stroke-linecap:square"
           id="path3" />
      </g>
      <g
         id="line2d_2">
        <path
           d="m 84.401467,140.4 2.65073,8.15811 2.650729,8.1581 2.65073,8.15811 2.650729,8.15811 2.650729,8.1581 2.650726,8.15811 2.65073,8.1581 2.65073,8.15811 2.65073,8.15811"
           clip-path="url(#p6573b7c4bb)"
           style="fill:none;stroke:#004cff;stroke-width:1.5;stroke-linecap:square"
           id="path4" />
      </g>
      <g
         id="line2d_3">
        <path
           d="m 84.401467,140.4 2.65073,-8.15811 2.650729,-8.1581 2.65073,-8.15811 2.650729,-8.15811 2.650729,-8.158102 2.650726,-8.158107 2.65073,-8.158106 2.65073,-8.158107 2.65073,-8.158106"
           clip-path="url(#p6573b7c4bb)"
           style="fill:none;stroke:#004cff;stroke-width:1.5;stroke-linecap:square"
           id="path5" />
      </g>
      <g
         id="line2d_4">
        <path
           d="m 84.401467,140.4 -2.650729,8.15811 -2.65073,8.1581 -2.650729,8.15811 -2.65073,8.15811 -2.650729,8.1581 -2.65073,8.15811 -2.650729,8.1581 -2.65073,8.15811 -2.650729,8.15811"
           clip-path="url(#p6573b7c4bb)"
           style="fill:none;stroke:#004cff;stroke-width:1.5;stroke-linecap:square"
           id="path6" />
      </g>
      <g
         id="line2d_5">
        <path
           d="m 84.401467,140.4 -3.074059,-8.0082 -3.074059,-8.00819 -3.074059,-8.0082 -3.074059,-8.0082 -3.074059,-8.0082 -3.074059,-8.008196 -3.074059,-8.008197 -3.074059,-8.008198 -3.074059,-8.008198"
           clip-path="url(#p6573b7c4bb)"
           style="fill:none;stroke:#0064ff;stroke-width:1.5;stroke-linecap:square"
           id="path7" />
      </g>
      <g
         id="line2d_6">
        <path
           d="m 84.401467,140.4 3.074059,8.0082 3.074059,8.00819 3.074059,8.0082 3.074059,8.0082 3.074059,8.0082 3.074058,8.0082 3.07406,8.00819 3.07406,8.0082 3.07406,8.0082"
           clip-path="url(#p6573b7c4bb)"
           style="fill:none;stroke:#0064ff;stroke-width:1.5;stroke-linecap:square"
           id="path8" />
      </g>
      <g
         id="line2d_7">
        <path
           d="m 84.401467,140.4 3.074059,-8.0082 3.074059,-8.00819 3.074059,-8.0082 3.074059,-8.0082 3.074059,-8.0082 3.074058,-8.008196 3.07406,-8.008197 3.07406,-8.008198 3.07406,-8.008198"
           clip-path="url(#p6573b7c4bb)"
           style="fill:none;stroke:#0064ff;stroke-width:1.5;stroke-linecap:square"
           id="path9" />
      </g>
      <g
         id="line2d_8">
        <path
           d="m 84.401467,140.4 -3.074059,8.0082 -3.074059,8.00819 -3.074059,8.0082 -3.074059,8.0082 -3.074059,8.0082 -3.074059,8.0082 -3.074059,8.00819 -3.074059,8.0082 -3.074059,8.0082"
           clip-path="url(#p6573b7c4bb)"
           style="fill:none;stroke:#0064ff;stroke-width:1.5;stroke-linecap:square"
           id="path10" />
      </g>
      <g
         id="line2d_9">
        <path
           d="m 84.401467,140.4 -3.488963,-7.83634 -3.488963,-7.83634 -3.488962,-7.83634 -3.488963,-7.83634 -3.488963,-7.83633 -3.488963,-7.836343 -3.488963,-7.836339 -3.488963,-7.836339 -3.488962,-7.836339"
           clip-path="url(#p6573b7c4bb)"
           style="fill:none;stroke:#0080ff;stroke-width:1.5;stroke-linecap:square"
           id="path11" />
      </g>
      <g
         id="line2d_10">
        <path
           d="m 84.401467,140.4 3.488963,7.83634 3.488963,7.83634 3.488963,7.83634 3.488962,7.83633 3.488962,7.83634 3.48896,7.83634 3.48897,7.83634 3.48896,7.83634 3.48896,7.83634"
           clip-path="url(#p6573b7c4bb)"
           style="fill:none;stroke:#0080ff;stroke-width:1.5;stroke-linecap:square"
           id="path12" />
      </g>
      <g
         id="line2d_11">
        <path
           d="m 84.401467,140.4 3.488963,-7.83634 3.488963,-7.83634 3.488963,-7.83634 3.488962,-7.83634 3.488962,-7.83633 3.48896,-7.836343 3.48897,-7.836339 3.48896,-7.836339 3.48896,-7.836339"
           clip-path="url(#p6573b7c4bb)"
           style="fill:none;stroke:#0080ff;stroke-width:1.5;stroke-linecap:square"
           id="path13" />
      </g>
      <g
         id="line2d_12">
        <path
           d="m 84.401467,140.4 -3.488963,7.83634 -3.488963,7.83634 -3.488962,7.83634 -3.488963,7.83633 -3.488963,7.83634 -3.488963,7.83634 -3.488963,7.83634 -3.488963,7.83634 -3.488962,7.83634"
           clip-path="url(#p6573b7c4bb)"
           style="fill:none;stroke:#0080ff;stroke-width:1.5;stroke-linecap:square"
           id="path14" />
      </g>
      <g
         id="line2d_13">
        <path
           d="m 84.401467,140.4 -3.894304,-7.643 -3.894303,-7.643 -3.894304,-7.643 -3.894303,-7.643 -3.894304,-7.64301 -3.894304,-7.642997 -3.894303,-7.643001 -3.894304,-7.643002 -3.894304,-7.643001"
           clip-path="url(#p6573b7c4bb)"
           style="fill:none;stroke:#0098ff;stroke-width:1.5;stroke-linecap:square"
           id="path15" />
      </g>
      <g
         id="line2d_14">
        <path
           d="m 84.401467,140.4 3.894304,7.643 3.894303,7.643 3.894304,7.643 3.894304,7.643 3.894308,7.64301 3.8943,7.643 3.8943,7.643 3.89431,7.643 3.8943,7.643"
           clip-path="url(#p6573b7c4bb)"
           style="fill:none;stroke:#0098ff;stroke-width:1.5;stroke-linecap:square"
           id="path16" />
      </g>
      <g
         id="line2d_15">
        <path
           d="m 84.401467,140.4 3.894304,-7.643 3.894303,-7.643 3.894304,-7.643 3.894304,-7.643 3.894308,-7.64301 3.8943,-7.642997 3.8943,-7.643001 3.89431,-7.643002 3.8943,-7.643001"
           clip-path="url(#p6573b7c4bb)"
           style="fill:none;stroke:#0098ff;stroke-width:1.5;stroke-linecap:square"
           id="path17" />
      </g>
      <g
         id="line2d_16">
        <path
           d="m 84.401467,140.4 -3.894304,7.643 -3.894303,7.643 -3.894304,7.643 -3.894303,7.643 -3.894304,7.64301 -3.894304,7.643 -3.894303,7.643 -3.894304,7.643 -3.894304,7.643"
           clip-path="url(#p6573b7c4bb)"
           style="fill:none;stroke:#0098ff;stroke-width:1.5;stroke-linecap:square"
           id="path18" />
      </g>
      <g
         id="line2d_17">
        <path
           d="m 84.401467,140.4 -4.28897,-7.42872 -4.288971,-7.42871 -4.28897,-7.42871 -4.288971,-7.42872 -4.28897,-7.42871 -4.28897,-7.428718 -4.288971,-7.428714 -4.28897,-7.428715 -4.28897,-7.428715"
           clip-path="url(#p6573b7c4bb)"
           style="fill:none;stroke:#00b0ff;stroke-width:1.5;stroke-linecap:square"
           id="path19" />
      </g>
      <g
         id="line2d_18">
        <path
           d="m 84.401467,140.4 4.28897,7.42871 4.288971,7.42872 4.28897,7.42871 4.288972,7.42872 4.28897,7.42871 4.28897,7.42872 4.28897,7.42871 4.28897,7.42872 4.28897,7.42871"
           clip-path="url(#p6573b7c4bb)"
           style="fill:none;stroke:#00b0ff;stroke-width:1.5;stroke-linecap:square"
           id="path20" />
      </g>
      <g
         id="line2d_19">
        <path
           d="m 84.401467,140.4 4.28897,-7.42872 4.288971,-7.42871 4.28897,-7.42871 4.288972,-7.42872 4.28897,-7.42871 4.28897,-7.428718 4.28897,-7.428714 4.28897,-7.428715 4.28897,-7.428715"
           clip-path="url(#p6573b7c4bb)"
           style="fill:none;stroke:#00b0ff;stroke-width:1.5;stroke-linecap:square"
           id="path21" />
      </g>
      <g
         id="line2d_20">
        <path
           d="m 84.401467,140.4 -4.28897,7.42871 -4.288971,7.42872 -4.28897,7.42871 -4.288971,7.42872 -4.28897,7.42871 -4.28897,7.42872 -4.288971,7.42871 -4.28897,7.42872 -4.28897,7.42871"
           clip-path="url(#p6573b7c4bb)"
           style="fill:none;stroke:#00b0ff;stroke-width:1.5;stroke-linecap:square"
           id="path22" />
      </g>
      <g
         id="line2d_21">
        <path
           d="m 84.401467,140.4 -4.671881,-7.19407 -4.671882,-7.19406 -4.671881,-7.19407 -4.671882,-7.19407 -4.671881,-7.19406 -4.671881,-7.194069 -4.671882,-7.194066 -4.671881,-7.194067 -4.671881,-7.194066"
           clip-path="url(#p6573b7c4bb)"
           style="fill:none;stroke:#00ccff;stroke-width:1.5;stroke-linecap:square"
           id="path23" />
      </g>
      <g
         id="line2d_22">
        <path
           d="m 84.401467,140.4 4.671881,7.19407 4.671882,7.19406 4.671881,7.19407 4.671879,7.19407 4.67188,7.19406 4.67189,7.19407 4.67188,7.19406 4.67188,7.19407 4.67188,7.19407"
           clip-path="url(#p6573b7c4bb)"
           style="fill:none;stroke:#00ccff;stroke-width:1.5;stroke-linecap:square"
           id="path24" />
      </g>
      <g
         id="line2d_23">
        <path
           d="m 84.401467,140.4 4.671881,-7.19407 4.671882,-7.19406 4.671881,-7.19407 4.671879,-7.19407 4.67188,-7.19406 4.67189,-7.194069 4.67188,-7.194066 4.67188,-7.194067 4.67188,-7.194066"
           clip-path="url(#p6573b7c4bb)"
           style="fill:none;stroke:#00ccff;stroke-width:1.5;stroke-linecap:square"
           id="path25" />
      </g>
      <g
         id="line2d_24">
        <path
           d="m 84.401467,140.4 -4.671881,7.19407 -4.671882,7.19406 -4.671881,7.19407 -4.671882,7.19407 -4.671881,7.19406 -4.671881,7.19407 -4.671882,7.19406 -4.671881,7.19407 -4.671881,7.19407"
           clip-path="url(#p6573b7c4bb)"
           style="fill:none;stroke:#00ccff;stroke-width:1.5;stroke-linecap:square"
           id="path26" />
      </g>
      <g
         id="line2d_25">
        <path
           d="m 84.401467,140.4 -5.041987,-6.9397 -5.041987,-6.9397 -5.041987,-6.9397 -5.041987,-6.9397 -5.041987,-6.9397 -5.041987,-6.939699 -5.041988,-6.9397 -5.041987,-6.9397 -5.041987,-6.9397"
           clip-path="url(#p6573b7c4bb)"
           style="fill:none;stroke:#00e4f8;stroke-width:1.5;stroke-linecap:square"
           id="path27" />
      </g>
      <g
         id="line2d_26">
        <path
           d="m 84.401467,140.4 5.041987,6.9397 5.041987,6.9397 5.041987,6.9397 5.041992,6.9397 5.04198,6.9397 5.04199,6.9397 5.04199,6.9397 5.04198,6.9397 5.04199,6.9397"
           clip-path="url(#p6573b7c4bb)"
           style="fill:none;stroke:#00e4f8;stroke-width:1.5;stroke-linecap:square"
           id="path28" />
      </g>
      <g
         id="line2d_27">
        <path
           d="m 84.401467,140.4 5.041987,-6.9397 5.041987,-6.9397 5.041987,-6.9397 5.041992,-6.9397 5.04198,-6.9397 5.04199,-6.939699 5.04199,-6.9397 5.04198,-6.9397 5.04199,-6.9397"
           clip-path="url(#p6573b7c4bb)"
           style="fill:none;stroke:#00e4f8;stroke-width:1.5;stroke-linecap:square"
           id="path29" />
      </g>
      <g
         id="line2d_28">
        <path
           d="m 84.401467,140.4 -5.041987,6.9397 -5.041987,6.9397 -5.041987,6.9397 -5.041987,6.9397 -5.041987,6.9397 -5.041987,6.9397 -5.041988,6.9397 -5.041987,6.9397 -5.041987,6.9397"
           clip-path="url(#p6573b7c4bb)"
           style="fill:none;stroke:#00e4f8;stroke-width:1.5;stroke-linecap:square"
           id="path30" />
      </g>
      <g
         id="line2d_29">
        <path
           d="m 84.401467,140.4 -5.398273,-6.66631 -5.398273,-6.66631 -5.398273,-6.66632 -5.398273,-6.66631 -5.398273,-6.66631 -5.398273,-6.66631 -5.398273,-6.666314 -5.398273,-6.666312 -5.398273,-6.666312"
           clip-path="url(#p6573b7c4bb)"
           style="fill:none;stroke:#16ffe1;stroke-width:1.5;stroke-linecap:square"
           id="path31" />
      </g>
      <g
         id="line2d_30">
        <path
           d="m 84.401467,140.4 5.398273,6.66631 5.398273,6.66631 5.398277,6.66632 5.39827,6.66631 5.39827,6.66631 5.39828,6.66631 5.39827,6.66631 5.39827,6.66632 5.39827,6.66631"
           clip-path="url(#p6573b7c4bb)"
           style="fill:none;stroke:#16ffe1;stroke-width:1.5;stroke-linecap:square"
           id="path32" />
      </g>
      <g
         id="line2d_31">
        <path
           d="m 84.401467,140.4 5.398273,-6.66631 5.398273,-6.66631 5.398277,-6.66632 5.39827,-6.66631 5.39827,-6.66631 5.39828,-6.66631 5.39827,-6.666314 5.39827,-6.666312 5.39827,-6.666312"
           clip-path="url(#p6573b7c4bb)"
           style="fill:none;stroke:#16ffe1;stroke-width:1.5;stroke-linecap:square"
           id="path33" />
      </g>
      <g
         id="line2d_32">
        <path
           d="m 84.401467,140.4 -5.398273,6.66631 -5.398273,6.66631 -5.398273,6.66632 -5.398273,6.66631 -5.398273,6.66631 -5.398273,6.66631 -5.398273,6.66631 -5.398273,6.66632 -5.398273,6.66631"
           clip-path="url(#p6573b7c4bb)"
           style="fill:none;stroke:#16ffe1;stroke-width:1.5;stroke-linecap:square"
           id="path34" />
      </g>
      <g
         id="line2d_33">
        <path
           d="m 84.401467,140.4 -5.739763,-6.37465 -5.739762,-6.37465 -5.739763,-6.37466 -5.739763,-6.37465 -5.739763,-6.37465 -5.739762,-6.37465 -5.739763,-6.374656 -5.739763,-6.374652 -5.739762,-6.374653"
           clip-path="url(#p6573b7c4bb)"
           style="fill:none;stroke:#29ffce;stroke-width:1.5;stroke-linecap:square"
           id="path35" />
      </g>
      <g
         id="line2d_34">
        <path
           d="m 84.401467,140.4 5.739763,6.37465 5.739763,6.37465 5.739767,6.37466 5.73976,6.37465 5.73976,6.37465 5.73976,6.37465 5.73977,6.37466 5.73976,6.37465 5.73976,6.37465"
           clip-path="url(#p6573b7c4bb)"
           style="fill:none;stroke:#29ffce;stroke-width:1.5;stroke-linecap:square"
           id="path36" />
      </g>
      <g
         id="line2d_35">
        <path
           d="m 84.401467,140.4 5.739763,-6.37465 5.739763,-6.37465 5.739767,-6.37466 5.73976,-6.37465 5.73976,-6.37465 5.73976,-6.37465 5.73977,-6.374656 5.73976,-6.374652 5.73976,-6.374653"
           clip-path="url(#p6573b7c4bb)"
           style="fill:none;stroke:#29ffce;stroke-width:1.5;stroke-linecap:square"
           id="path37" />
      </g>
      <g
         id="line2d_36">
        <path
           d="m 84.401467,140.4 -5.739763,6.37465 -5.739762,6.37465 -5.739763,6.37466 -5.739763,6.37465 -5.739763,6.37465 -5.739762,6.37465 -5.739763,6.37466 -5.739763,6.37465 -5.739762,6.37465"
           clip-path="url(#p6573b7c4bb)"
           style="fill:none;stroke:#29ffce;stroke-width:1.5;stroke-linecap:square"
           id="path38" />
      </g>
      <g
         id="line2d_37">
        <path
           d="m 84.401467,140.4 -6.06552,-6.06552 -6.06552,-6.06552 -6.06552,-6.06552 -6.06552,-6.06552 -6.06552,-6.06552 -6.065521,-6.06552 -6.06552,-6.065521 -6.06552,-6.06552 -6.06552,-6.06552"
           clip-path="url(#p6573b7c4bb)"
           style="fill:none;stroke:#3cffba;stroke-width:1.5;stroke-linecap:square"
           id="path39" />
      </g>
      <g
         id="line2d_38">
        <path
           d="m 84.401467,140.4 6.06552,6.06552 6.06552,6.06552 6.065523,6.06552 6.06552,6.06552 6.06552,6.06552 6.06552,6.06552 6.06552,6.06552 6.06552,6.06552 6.06552,6.06552"
           clip-path="url(#p6573b7c4bb)"
           style="fill:none;stroke:#3cffba;stroke-width:1.5;stroke-linecap:square"
           id="path40" />
      </g>
      <g
         id="line2d_39">
        <path
           d="m 84.401467,140.4 6.06552,-6.06552 6.06552,-6.06552 6.065523,-6.06552 6.06552,-6.06552 6.06552,-6.06552 6.06552,-6.06552 6.06552,-6.065521 6.06552,-6.06552 6.06552,-6.06552"
           clip-path="url(#p6573b7c4bb)"
           style="fill:none;stroke:#3cffba;stroke-width:1.5;stroke-linecap:square"
           id="path41" />
      </g>
      <g
         id="line2d_40">
        <path
           d="m 84.401467,140.4 -6.06552,6.06552 -6.06552,6.06552 -6.06552,6.06552 -6.06552,6.06552 -6.06552,6.06552 -6.065521,6.06552 -6.06552,6.06552 -6.06552,6.06552 -6.06552,6.06552"
           clip-path="url(#p6573b7c4bb)"
           style="fill:none;stroke:#3cffba;stroke-width:1.5;stroke-linecap:square"
           id="path42" />
      </g>
      <g
         id="line2d_41">
        <path
           d="m 84.401467,140.4 -6.374652,-5.73976 -6.374653,-5.73977 -6.374652,-5.73976 -6.374652,-5.73976 -6.374652,-5.73976 -6.374653,-5.73977 -6.374652,-5.73976 -6.374652,-5.739762 -6.374653,-5.739762"
           clip-path="url(#p6573b7c4bb)"
           style="fill:none;stroke:#53ffa4;stroke-width:1.5;stroke-linecap:square"
           id="path43" />
      </g>
      <g
         id="line2d_42">
        <path
           d="m 84.401467,140.4 6.374652,5.73976 6.374653,5.73976 6.374648,5.73977 6.37466,5.73976 6.37465,5.73976 6.37465,5.73977 6.37465,5.73976 6.37466,5.73976 6.37465,5.73976"
           clip-path="url(#p6573b7c4bb)"
           style="fill:none;stroke:#53ffa4;stroke-width:1.5;stroke-linecap:square"
           id="path44" />
      </g>
      <g
         id="line2d_43">
        <path
           d="m 84.401467,140.4 6.374652,-5.73976 6.374653,-5.73977 6.374648,-5.73976 6.37466,-5.73976 6.37465,-5.73976 6.37465,-5.73977 6.37465,-5.73976 6.37466,-5.739762 6.37465,-5.739762"
           clip-path="url(#p6573b7c4bb)"
           style="fill:none;stroke:#53ffa4;stroke-width:1.5;stroke-linecap:square"
           id="path45" />
      </g>
      <g
         id="line2d_44">
        <path
           d="m 84.401467,140.4 -6.374652,5.73976 -6.374653,5.73976 -6.374652,5.73977 -6.374652,5.73976 -6.374652,5.73976 -6.374653,5.73977 -6.374652,5.73976 -6.374652,5.73976 -6.374653,5.73976"
           clip-path="url(#p6573b7c4bb)"
           style="fill:none;stroke:#53ffa4;stroke-width:1.5;stroke-linecap:square"
           id="path46" />
      </g>
      <g
         id="line2d_45">
        <path
           d="m 84.401467,140.4 -6.666312,-5.39827 -6.666312,-5.39828 -6.666312,-5.39827 -6.666312,-5.39827 -6.666312,-5.39827 -6.666312,-5.39828 -6.666312,-5.39827 -6.666312,-5.398274 -6.666312,-5.398273"
           clip-path="url(#p6573b7c4bb)"
           style="fill:none;stroke:#66ff90;stroke-width:1.5;stroke-linecap:square"
           id="path47" />
      </g>
      <g
         id="line2d_46">
        <path
           d="m 84.401467,140.4 6.666312,5.39827 6.666312,5.39828 6.666309,5.39827 6.66632,5.39827 6.66631,5.39827 6.66631,5.39828 6.66631,5.39827 6.66631,5.39827 6.66631,5.39828"
           clip-path="url(#p6573b7c4bb)"
           style="fill:none;stroke:#66ff90;stroke-width:1.5;stroke-linecap:square"
           id="path48" />
      </g>
      <g
         id="line2d_47">
        <path
           d="m 84.401467,140.4 6.666312,-5.39827 6.666312,-5.39828 6.666309,-5.39827 6.66632,-5.39827 6.66631,-5.39827 6.66631,-5.39828 6.66631,-5.39827 6.66631,-5.398274 6.66631,-5.398273"
           clip-path="url(#p6573b7c4bb)"
           style="fill:none;stroke:#66ff90;stroke-width:1.5;stroke-linecap:square"
           id="path49" />
      </g>
      <g
         id="line2d_48">
        <path
           d="m 84.401467,140.4 -6.666312,5.39827 -6.666312,5.39828 -6.666312,5.39827 -6.666312,5.39827 -6.666312,5.39827 -6.666312,5.39828 -6.666312,5.39827 -6.666312,5.39827 -6.666312,5.39828"
           clip-path="url(#p6573b7c4bb)"
           style="fill:none;stroke:#66ff90;stroke-width:1.5;stroke-linecap:square"
           id="path50" />
      </g>
      <g
         id="line2d_49">
        <path
           d="m 84.401467,140.4 -6.9397,-5.04199 -6.9397,-5.04198 -6.9397,-5.04199 -6.939699,-5.04199 -6.9397,-5.04198 -6.9397,-5.04199 -6.9397,-5.04199 -6.9397,-5.04199 -6.9397,-5.041984"
           clip-path="url(#p6573b7c4bb)"
           style="fill:none;stroke:#7dff7a;stroke-width:1.5;stroke-linecap:square"
           id="path51" />
      </g>
      <g
         id="line2d_50">
        <path
           d="m 84.401467,140.4 6.9397,5.04199 6.9397,5.04198 6.939703,5.04199 6.9397,5.04199 6.9397,5.04198 6.9397,5.04199 6.9397,5.04199 6.9397,5.04199 6.9397,5.04198"
           clip-path="url(#p6573b7c4bb)"
           style="fill:none;stroke:#7dff7a;stroke-width:1.5;stroke-linecap:square"
           id="path52" />
      </g>
      <g
         id="line2d_51">
        <path
           d="m 84.401467,140.4 6.9397,-5.04199 6.9397,-5.04198 6.939703,-5.04199 6.9397,-5.04199 6.9397,-5.04198 6.9397,-5.04199 6.9397,-5.04199 6.9397,-5.04199 6.9397,-5.041984"
           clip-path="url(#p6573b7c4bb)"
           style="fill:none;stroke:#7dff7a;stroke-width:1.5;stroke-linecap:square"
           id="path53" />
      </g>
      <g
         id="line2d_52">
        <path
           d="m 84.401467,140.4 -6.9397,5.04199 -6.9397,5.04198 -6.9397,5.04199 -6.939699,5.04199 -6.9397,5.04198 -6.9397,5.04199 -6.9397,5.04199 -6.9397,5.04199 -6.9397,5.04198"
           clip-path="url(#p6573b7c4bb)"
           style="fill:none;stroke:#7dff7a;stroke-width:1.5;stroke-linecap:square"
           id="path54" />
      </g>
      <g
         id="line2d_53">
        <path
           d="m 84.401467,140.4 -7.194066,-4.67188 -7.194067,-4.67188 -7.194066,-4.67188 -7.194067,-4.67189 -7.194066,-4.67188 -7.194067,-4.67188 -7.194066,-4.67188 -7.194067,-4.67188 -7.194066,-4.671883"
           clip-path="url(#p6573b7c4bb)"
           style="fill:none;stroke:#90ff66;stroke-width:1.5;stroke-linecap:square"
           id="path55" />
      </g>
      <g
         id="line2d_54">
        <path
           d="m 84.401467,140.4 7.194067,4.67188 7.194066,4.67188 7.19407,4.67188 7.19406,4.67189 7.19407,4.67188 7.19407,4.67188 7.19406,4.67188 7.19407,4.67188 7.19406,4.67188"
           clip-path="url(#p6573b7c4bb)"
           style="fill:none;stroke:#90ff66;stroke-width:1.5;stroke-linecap:square"
           id="path56" />
      </g>
      <g
         id="line2d_55">
        <path
           d="m 84.401467,140.4 7.194067,-4.67188 7.194066,-4.67188 7.19407,-4.67188 7.19406,-4.67189 7.19407,-4.67188 7.19407,-4.67188 7.19406,-4.67188 7.19407,-4.67188 7.19406,-4.671883"
           clip-path="url(#p6573b7c4bb)"
           style="fill:none;stroke:#90ff66;stroke-width:1.5;stroke-linecap:square"
           id="path57" />
      </g>
      <g
         id="line2d_56">
        <path
           d="m 84.401467,140.4 -7.194066,4.67188 -7.194067,4.67188 -7.194066,4.67188 -7.194067,4.67189 -7.194066,4.67188 -7.194067,4.67188 -7.194066,4.67188 -7.194067,4.67188 -7.194066,4.67188"
           clip-path="url(#p6573b7c4bb)"
           style="fill:none;stroke:#90ff66;stroke-width:1.5;stroke-linecap:square"
           id="path58" />
      </g>
      <g
         id="line2d_57">
        <path
           d="m 84.401467,140.4 -7.428715,-4.28897 -7.428714,-4.28897 -7.428715,-4.28897 -7.428714,-4.28897 -7.428715,-4.28897 -7.428715,-4.28897 -7.428714,-4.28897 -7.428715,-4.28897 -7.428715,-4.28897"
           clip-path="url(#p6573b7c4bb)"
           style="fill:none;stroke:#a4ff53;stroke-width:1.5;stroke-linecap:square"
           id="path59" />
      </g>
      <g
         id="line2d_58">
        <path
           d="m 84.401467,140.4 7.428715,4.28897 7.428714,4.28897 7.428714,4.28897 7.42872,4.28897 7.42871,4.28897 7.42871,4.28897 7.42872,4.28897 7.42871,4.28897 7.42872,4.28897"
           clip-path="url(#p6573b7c4bb)"
           style="fill:none;stroke:#a4ff53;stroke-width:1.5;stroke-linecap:square"
           id="path60" />
      </g>
      <g
         id="line2d_59">
        <path
           d="m 84.401467,140.4 7.428715,-4.28897 7.428714,-4.28897 7.428714,-4.28897 7.42872,-4.28897 7.42871,-4.28897 7.42871,-4.28897 7.42872,-4.28897 7.42871,-4.28897 7.42872,-4.28897"
           clip-path="url(#p6573b7c4bb)"
           style="fill:none;stroke:#a4ff53;stroke-width:1.5;stroke-linecap:square"
           id="path61" />
      </g>
      <g
         id="line2d_60">
        <path
           d="m 84.401467,140.4 -7.428715,4.28897 -7.428714,4.28897 -7.428715,4.28897 -7.428714,4.28897 -7.428715,4.28897 -7.428715,4.28897 -7.428714,4.28897 -7.428715,4.28897 -7.428715,4.28897"
           clip-path="url(#p6573b7c4bb)"
           style="fill:none;stroke:#a4ff53;stroke-width:1.5;stroke-linecap:square"
           id="path62" />
      </g>
      <g
         id="line2d_61">
        <path
           d="m 84.401467,140.4 -7.643001,-3.8943 -7.643001,-3.89431 -7.643002,-3.8943 -7.643001,-3.8943 -7.643001,-3.89431 -7.643001,-3.8943 -7.643001,-3.8943 -7.643002,-3.89431 -7.643001,-3.8943"
           clip-path="url(#p6573b7c4bb)"
           style="fill:none;stroke:#baff3c;stroke-width:1.5;stroke-linecap:square"
           id="path63" />
      </g>
      <g
         id="line2d_62">
        <path
           d="m 84.401467,140.4 7.643001,3.8943 7.643001,3.89431 7.643001,3.8943 7.643,3.8943 7.643,3.89431 7.643,3.8943 7.643,3.8943 7.64301,3.89431 7.643,3.8943"
           clip-path="url(#p6573b7c4bb)"
           style="fill:none;stroke:#baff3c;stroke-width:1.5;stroke-linecap:square"
           id="path64" />
      </g>
      <g
         id="line2d_63">
        <path
           d="m 84.401467,140.4 7.643001,-3.8943 7.643001,-3.89431 7.643001,-3.8943 7.643,-3.8943 7.643,-3.89431 7.643,-3.8943 7.643,-3.8943 7.64301,-3.89431 7.643,-3.8943"
           clip-path="url(#p6573b7c4bb)"
           style="fill:none;stroke:#baff3c;stroke-width:1.5;stroke-linecap:square"
           id="path65" />
      </g>
      <g
         id="line2d_64">
        <path
           d="m 84.401467,140.4 -7.643001,3.8943 -7.643001,3.89431 -7.643002,3.8943 -7.643001,3.8943 -7.643001,3.89431 -7.643001,3.8943 -7.643001,3.8943 -7.643002,3.89431 -7.643001,3.8943"
           clip-path="url(#p6573b7c4bb)"
           style="fill:none;stroke:#baff3c;stroke-width:1.5;stroke-linecap:square"
           id="path66" />
      </g>
      <g
         id="line2d_65">
        <path
           d="m 84.401467,140.4 -7.836339,-3.48896 -7.836339,-3.48897 -7.836338,-3.48896 -7.836339,-3.48896 -7.836339,-3.48896 -7.836339,-3.48897 -7.836339,-3.48896 -7.836339,-3.48896 -7.836338,-3.48897"
           clip-path="url(#p6573b7c4bb)"
           style="fill:none;stroke:#ceff29;stroke-width:1.5;stroke-linecap:square"
           id="path67" />
      </g>
      <g
         id="line2d_66">
        <path
           d="m 84.401467,140.4 7.836339,3.48896 7.836344,3.48897 7.83633,3.48896 7.83634,3.48896 7.83634,3.48896 7.83634,3.48897 7.83634,3.48896 7.83634,3.48896 7.83634,3.48897"
           clip-path="url(#p6573b7c4bb)"
           style="fill:none;stroke:#ceff29;stroke-width:1.5;stroke-linecap:square"
           id="path68" />
      </g>
      <g
         id="line2d_67">
        <path
           d="m 84.401467,140.4 7.836339,-3.48896 7.836344,-3.48897 7.83633,-3.48896 7.83634,-3.48896 7.83634,-3.48896 7.83634,-3.48897 7.83634,-3.48896 7.83634,-3.48896 7.83634,-3.48897"
           clip-path="url(#p6573b7c4bb)"
           style="fill:none;stroke:#ceff29;stroke-width:1.5;stroke-linecap:square"
           id="path69" />
      </g>
      <g
         id="line2d_68">
        <path
           d="m 84.401467,140.4 -7.836339,3.48896 -7.836339,3.48897 -7.836338,3.48896 -7.836339,3.48896 -7.836339,3.48896 -7.836339,3.48897 -7.836339,3.48896 -7.836339,3.48896 -7.836338,3.48897"
           clip-path="url(#p6573b7c4bb)"
           style="fill:none;stroke:#ceff29;stroke-width:1.5;stroke-linecap:square"
           id="path70" />
      </g>
      <g
         id="line2d_69">
        <path
           d="m 84.401467,140.4 -8.008198,-3.07406 -8.008197,-3.07406 -8.008198,-3.07406 -8.008197,-3.07406 -8.008198,-3.07405 -8.008198,-3.07406 -8.008197,-3.07406 -8.008198,-3.07406 -8.008197,-3.07406"
           clip-path="url(#p6573b7c4bb)"
           style="fill:none;stroke:#e4ff13;stroke-width:1.5;stroke-linecap:square"
           id="path71" />
      </g>
      <g
         id="line2d_70">
        <path
           d="m 84.401467,140.4 8.008198,3.07406 8.008195,3.07406 8.0082,3.07406 8.0082,3.07406 8.00819,3.07405 8.0082,3.07406 8.0082,3.07406 8.0082,3.07406 8.0082,3.07406"
           clip-path="url(#p6573b7c4bb)"
           style="fill:none;stroke:#e4ff13;stroke-width:1.5;stroke-linecap:square"
           id="path72" />
      </g>
      <g
         id="line2d_71">
        <path
           d="m 84.401467,140.4 8.008198,-3.07406 8.008195,-3.07406 8.0082,-3.07406 8.0082,-3.07406 8.00819,-3.07405 8.0082,-3.07406 8.0082,-3.07406 8.0082,-3.07406 8.0082,-3.07406"
           clip-path="url(#p6573b7c4bb)"
           style="fill:none;stroke:#e4ff13;stroke-width:1.5;stroke-linecap:square"
           id="path73" />
      </g>
      <g
         id="line2d_72">
        <path
           d="m 84.401467,140.4 -8.008198,3.07406 -8.008197,3.07406 -8.008198,3.07406 -8.008197,3.07406 -8.008198,3.07405 -8.008198,3.07406 -8.008197,3.07406 -8.008198,3.07406 -8.008197,3.07406"
           clip-path="url(#p6573b7c4bb)"
           style="fill:none;stroke:#e4ff13;stroke-width:1.5;stroke-linecap:square"
           id="path74" />
      </g>
      <g
         id="line2d_73">
        <path
           d="m 84.401467,140.4 -8.158106,-2.65073 -8.158107,-2.65073 -8.158106,-2.65073 -8.158107,-2.65073 -8.158106,-2.65073 -8.158107,-2.65073 -8.158106,-2.65073 -8.158107,-2.65073 -8.158106,-2.65072"
           clip-path="url(#p6573b7c4bb)"
           style="fill:none;stroke:#f8f500;stroke-width:1.5;stroke-linecap:square"
           id="path75" />
      </g>
      <g
         id="line2d_74">
        <path
           d="m 84.401467,140.4 8.158107,2.65073 8.158106,2.65073 8.15811,2.65073 8.1581,2.65073 8.15811,2.65073 8.15811,2.65073 8.1581,2.65073 8.15811,2.65073 8.1581,2.65072"
           clip-path="url(#p6573b7c4bb)"
           style="fill:none;stroke:#f8f500;stroke-width:1.5;stroke-linecap:square"
           id="path76" />
      </g>
      <g
         id="line2d_75">
        <path
           d="m 84.401467,140.4 8.158107,-2.65073 8.158106,-2.65073 8.15811,-2.65073 8.1581,-2.65073 8.15811,-2.65073 8.15811,-2.65073 8.1581,-2.65073 8.15811,-2.65073 8.1581,-2.65072"
           clip-path="url(#p6573b7c4bb)"
           style="fill:none;stroke:#f8f500;stroke-width:1.5;stroke-linecap:square"
           id="path77" />
      </g>
      <g
         id="line2d_76">
        <path
           d="m 84.401467,140.4 -8.158106,2.65073 -8.158107,2.65073 -8.158106,2.65073 -8.158107,2.65073 -8.158106,2.65073 -8.158107,2.65073 -8.158106,2.65073 -8.158107,2.65073 -8.158106,2.65072"
           clip-path="url(#p6573b7c4bb)"
           style="fill:none;stroke:#f8f500;stroke-width:1.5;stroke-linecap:square"
           id="path78" />
      </g>
      <g
         id="line2d_77">
        <path
           d="m 84.401467,140.4 -8.285654,-2.22013 -8.285655,-2.22014 -8.285655,-2.22013 -8.285654,-2.22014 -8.285655,-2.22013 -8.285654,-2.22014 -8.285655,-2.22013 -8.285654,-2.22014 -8.285655,-2.22013"
           clip-path="url(#p6573b7c4bb)"
           style="fill:none;stroke:#ffde00;stroke-width:1.5;stroke-linecap:square"
           id="path79" />
      </g>
      <g
         id="line2d_78">
        <path
           d="m 84.401467,140.4 8.285655,2.22013 8.285658,2.22014 8.28565,2.22013 8.28565,2.22014 8.28566,2.22013 8.28565,2.22014 8.28566,2.22013 8.28565,2.22014 8.28566,2.22013"
           clip-path="url(#p6573b7c4bb)"
           style="fill:none;stroke:#ffde00;stroke-width:1.5;stroke-linecap:square"
           id="path80" />
      </g>
      <g
         id="line2d_79">
        <path
           d="m 84.401467,140.4 8.285655,-2.22013 8.285658,-2.22014 8.28565,-2.22013 8.28565,-2.22014 8.28566,-2.22013 8.28565,-2.22014 8.28566,-2.22013 8.28565,-2.22014 8.28566,-2.22013"
           clip-path="url(#p6573b7c4bb)"
           style="fill:none;stroke:#ffde00;stroke-width:1.5;stroke-linecap:square"
           id="path81" />
      </g>
      <g
         id="line2d_80">
        <path
           d="m 84.401467,140.4 -8.285654,2.22013 -8.285655,2.22014 -8.285655,2.22013 -8.285654,2.22014 -8.285655,2.22013 -8.285654,2.22014 -8.285655,2.22013 -8.285654,2.22014 -8.285655,2.22013"
           clip-path="url(#p6573b7c4bb)"
           style="fill:none;stroke:#ffde00;stroke-width:1.5;stroke-linecap:square"
           id="path82" />
      </g>
      <g
         id="line2d_81">
        <path
           d="m 84.401467,140.4 -8.390492,-1.78345 -8.390492,-1.78346 -8.390493,-1.78345 -8.390492,-1.78346 -8.390492,-1.78345 -8.390492,-1.78346 -8.390492,-1.78345 -8.390493,-1.78345 -8.390492,-1.78346"
           clip-path="url(#p6573b7c4bb)"
           style="fill:none;stroke:#ffc400;stroke-width:1.5;stroke-linecap:square"
           id="path83" />
      </g>
      <g
         id="line2d_82">
        <path
           d="m 84.401467,140.4 8.390492,1.78345 8.390491,1.78346 8.39049,1.78345 8.3905,1.78346 8.39049,1.78345 8.39049,1.78345 8.39049,1.78346 8.39049,1.78345 8.3905,1.78346"
           clip-path="url(#p6573b7c4bb)"
           style="fill:none;stroke:#ffc400;stroke-width:1.5;stroke-linecap:square"
           id="path84" />
      </g>
      <g
         id="line2d_83">
        <path
           d="m 84.401467,140.4 8.390492,-1.78345 8.390491,-1.78346 8.39049,-1.78345 8.3905,-1.78346 8.39049,-1.78345 8.39049,-1.78346 8.39049,-1.78345 8.39049,-1.78345 8.3905,-1.78346"
           clip-path="url(#p6573b7c4bb)"
           style="fill:none;stroke:#ffc400;stroke-width:1.5;stroke-linecap:square"
           id="path85" />
      </g>
      <g
         id="line2d_84">
        <path
           d="m 84.401467,140.4 -8.390492,1.78345 -8.390492,1.78346 -8.390493,1.78345 -8.390492,1.78346 -8.390492,1.78345 -8.390492,1.78345 -8.390492,1.78346 -8.390493,1.78345 -8.390492,1.78346"
           clip-path="url(#p6573b7c4bb)"
           style="fill:none;stroke:#ffc400;stroke-width:1.5;stroke-linecap:square"
           id="path86" />
      </g>
      <g
         id="line2d_85">
        <path
           d="m 84.401467,140.4 -8.472332,-1.34189 -8.472332,-1.34188 -8.472332,-1.34189 -8.472332,-1.34188 -8.472332,-1.34189 -8.472333,-1.34188 -8.472332,-1.34189 -8.472332,-1.34189 -8.472332,-1.34188"
           clip-path="url(#p6573b7c4bb)"
           style="fill:none;stroke:#ffae00;stroke-width:1.5;stroke-linecap:square"
           id="path87" />
      </g>
      <g
         id="line2d_86">
        <path
           d="m 84.401467,140.4 8.472332,1.34189 8.472331,1.34188 8.47233,1.34189 8.47234,1.34188 8.47233,1.34189 8.47233,1.34188 8.47233,1.34189 8.47233,1.34188 8.47234,1.34189"
           clip-path="url(#p6573b7c4bb)"
           style="fill:none;stroke:#ffae00;stroke-width:1.5;stroke-linecap:square"
           id="path88" />
      </g>
      <g
         id="line2d_87">
        <path
           d="m 84.401467,140.4 8.472332,-1.34189 8.472331,-1.34188 8.47233,-1.34189 8.47234,-1.34188 8.47233,-1.34189 8.47233,-1.34188 8.47233,-1.34189 8.47233,-1.34189 8.47234,-1.34188"
           clip-path="url(#p6573b7c4bb)"
           style="fill:none;stroke:#ffae00;stroke-width:1.5;stroke-linecap:square"
           id="path89" />
      </g>
      <g
         id="line2d_88">
        <path
           d="m 84.401467,140.4 -8.472332,1.34189 -8.472332,1.34188 -8.472332,1.34189 -8.472332,1.34188 -8.472332,1.34189 -8.472333,1.34188 -8.472332,1.34189 -8.472332,1.34188 -8.472332,1.34189"
           clip-path="url(#p6573b7c4bb)"
           style="fill:none;stroke:#ffae00;stroke-width:1.5;stroke-linecap:square"
           id="path90" />
      </g>
      <g
         id="line2d_89">
        <path
           d="m 84.401467,140.4 -8.53095,-0.89664 -8.53095,-0.89664 -8.53095,-0.89664 -8.53095,-0.89664 -8.53095,-0.89664 -8.53095,-0.89663 -8.530949,-0.89664 -8.53095,-0.89664 -8.53095,-0.89664"
           clip-path="url(#p6573b7c4bb)"
           style="fill:none;stroke:#ff9400;stroke-width:1.5;stroke-linecap:square"
           id="path91" />
      </g>
      <g
         id="line2d_90">
        <path
           d="m 84.401467,140.4 8.53095,0.89664 8.530953,0.89664 8.53095,0.89664 8.53095,0.89664 8.53095,0.89663 8.53095,0.89664 8.53095,0.89664 8.53095,0.89664 8.53095,0.89664"
           clip-path="url(#p6573b7c4bb)"
           style="fill:none;stroke:#ff9400;stroke-width:1.5;stroke-linecap:square"
           id="path92" />
      </g>
      <g
         id="line2d_91">
        <path
           d="m 84.401467,140.4 8.53095,-0.89664 8.530953,-0.89664 8.53095,-0.89664 8.53095,-0.89664 8.53095,-0.89664 8.53095,-0.89663 8.53095,-0.89664 8.53095,-0.89664 8.53095,-0.89664"
           clip-path="url(#p6573b7c4bb)"
           style="fill:none;stroke:#ff9400;stroke-width:1.5;stroke-linecap:square"
           id="path93" />
      </g>
      <g
         id="line2d_92">
        <path
           d="m 84.401467,140.4 -8.53095,0.89664 -8.53095,0.89664 -8.53095,0.89664 -8.53095,0.89664 -8.53095,0.89663 -8.53095,0.89664 -8.530949,0.89664 -8.53095,0.89664 -8.53095,0.89664"
           clip-path="url(#p6573b7c4bb)"
           style="fill:none;stroke:#ff9400;stroke-width:1.5;stroke-linecap:square"
           id="path94" />
      </g>
      <g
         id="line2d_93">
        <path
           d="m 84.401467,140.4 -8.566185,-0.44894 -8.566185,-0.44893 -8.566185,-0.44893 -8.566185,-0.44894 -8.566185,-0.44893 -8.566185,-0.44894 -8.566185,-0.44893 -8.566185,-0.44894 -8.566185,-0.44893"
           clip-path="url(#p6573b7c4bb)"
           style="fill:none;stroke:#ff7e00;stroke-width:1.5;stroke-linecap:square"
           id="path95" />
      </g>
      <g
         id="line2d_94">
        <path
           d="m 84.401467,140.4 8.566185,0.44893 8.566188,0.44894 8.56618,0.44893 8.56619,0.44894 8.56618,0.44893 8.56619,0.44894 8.56618,0.44893 8.56619,0.44894 8.56618,0.44893"
           clip-path="url(#p6573b7c4bb)"
           style="fill:none;stroke:#ff7e00;stroke-width:1.5;stroke-linecap:square"
           id="path96" />
      </g>
      <g
         id="line2d_95">
        <path
           d="m 84.401467,140.4 8.566185,-0.44894 8.566188,-0.44893 8.56618,-0.44893 8.56619,-0.44894 8.56618,-0.44893 8.56619,-0.44894 8.56618,-0.44893 8.56619,-0.44894 8.56618,-0.44893"
           clip-path="url(#p6573b7c4bb)"
           style="fill:none;stroke:#ff7e00;stroke-width:1.5;stroke-linecap:square"
           id="path97" />
      </g>
      <g
         id="line2d_96">
        <path
           d="m 84.401467,140.4 -8.566185,0.44893 -8.566185,0.44894 -8.566185,0.44893 -8.566185,0.44894 -8.566185,0.44893 -8.566185,0.44894 -8.566185,0.44893 -8.566185,0.44894 -8.566185,0.44893"
           clip-path="url(#p6573b7c4bb)"
           style="fill:none;stroke:#ff7e00;stroke-width:1.5;stroke-linecap:square"
           id="path98" />
      </g>
      <g
         id="line2d_97">
        <path
           d="M 84.401467,140.4 H 75.823526 67.245585 58.667645 50.089704 41.511763 32.933822 24.355882 15.777941 7.2"
           clip-path="url(#p6573b7c4bb)"
           style="fill:none;stroke:#ff6800;stroke-width:1.5;stroke-linecap:square"
           id="path99" />
      </g>
      <g
         id="line2d_98">
        <path
           d="m 84.401467,140.4 h 8.577941 8.577942 8.57794 8.57794 8.57794 8.57794 8.57794 8.57794 8.57794"
           clip-path="url(#p6573b7c4bb)"
           style="fill:none;stroke:#ff6800;stroke-width:1.5;stroke-linecap:square"
           id="path100" />
      </g>
      <g
         id="line2d_99">
        <path
           d="m 84.401467,140.4 h 8.577941 8.577942 8.57794 8.57794 8.57794 8.57794 8.57794 8.57794 8.57794"
           clip-path="url(#p6573b7c4bb)"
           style="fill:none;stroke:#ff6800;stroke-width:1.5;stroke-linecap:square"
           id="path101" />
      </g>
      <g
         id="line2d_100">
        <path
           d="M 84.401467,140.4 H 75.823526 67.245585 58.667645 50.089704 41.511763 32.933822 24.355882 15.777941 7.2"
           clip-path="url(#p6573b7c4bb)"
           style="fill:none;stroke:#ff6800;stroke-width:1.5;stroke-linecap:square"
           id="path102" />
      </g>
      <g
         id="patch_3">
        <path
           d="m 84.401467,63.198533 c -10.138004,0 -20.177428,1.996966 -29.543722,5.876612 C 45.49145,72.954791 36.980437,78.641668 29.811786,85.810319 22.643135,92.97897 16.956258,101.48998 13.076612,110.85628 9.196966,120.22257 7.2,130.262 7.2,140.4 c 0,10.138 1.996966,20.17743 5.876612,29.54372 3.879646,9.3663 9.566523,17.87731 16.735174,25.04596 7.168651,7.16865 15.679664,12.85553 25.045959,16.73517 9.366294,3.87965 19.405718,5.87662 29.543722,5.87662 10.138004,0 20.177433,-1.99697 29.543723,-5.87662 9.36629,-3.87964 17.87731,-9.56652 25.04596,-16.73517 7.16865,-7.16865 12.85553,-15.67966 16.73517,-25.04596 3.87965,-9.36629 5.87661,-19.40572 5.87661,-29.54372 0,-10.138 -1.99696,-20.17743 -5.87661,-29.54372 -3.87964,-9.3663 -9.56652,-17.87731 -16.73517,-25.045961 C 131.8225,78.641668 123.31148,72.954791 113.94519,69.075145 104.5789,65.195499 94.539471,63.198533 84.401467,63.198533"
           style="fill:none;stroke:#000000;stroke-width:0.8;stroke-linecap:square;stroke-linejoin:miter"
           id="path103" />
      </g>
    </g>
    <g
       id="axes_2">
      <g
         id="text_1">
        <!-- $ETSpy$ -->
        <g
           transform="matrix(1.4,0,0,-1.4,172.40293,193.68)"
           id="g107">
          <defs
             id="defs103">
            <path
               id="DejaVuSans-Oblique-45"
               d="M 1081,4666 H 4031 L 3928,4134 H 1606 L 1338,2753 H 3566 L 3463,2222 H 1234 L 909,531 H 3284 L 3181,0 H 172 Z"
               transform="scale(0.015625)" />
            <path
               id="DejaVuSans-Oblique-54"
               d="M 378,4666 H 4325 L 4225,4134 H 2559 L 1759,0 h -634 l 800,4134 H 275 Z"
               transform="scale(0.015625)" />
            <path
               id="DejaVuSans-Oblique-53"
               d="m 3859,4513 -121,-616 q -316,169 -627,255 -311,86 -602,86 -565,0 -900,-247 -334,-247 -334,-657 0,-225 123,-345 124,-120 636,-258 l 379,-93 q 640,-166 890,-421 250,-254 250,-714 Q 3553,797 2998,353 2444,-91 1538,-91 1166,-91 791,-17 416,56 38,206 l 128,650 q 347,-215 695,-325 348,-109 695,-109 591,0 947,262 356,263 356,685 0,281 -142,426 -142,146 -611,264 l -378,97 q -647,169 -883,389 -236,221 -236,618 0,696 536,1141 536,446 1396,446 334,0 662,-60 328,-59 656,-177 z"
               transform="scale(0.015625)" />
            <path
               id="DejaVuSans-Oblique-70"
               d="m 3175,2156 q 0,460 -200,703 -200,244 -575,244 -256,0 -489,-131 -233,-131 -414,-381 -178,-247 -285,-597 -106,-350 -106,-694 0,-437 200,-673 200,-236 569,-236 272,0 505,128 233,128 398,372 178,256 287,603 110,347 110,662 z m -1781,813 q 231,303 545,459 314,156 699,156 537,0 834,-352 297,-351 297,-985 0,-519 -185,-989 Q 3400,788 3053,416 2822,169 2531,39 2241,-91 1919,-91 1547,-91 1294,64 1041,219 916,525 L 556,-1331 H -19 l 941,4831 h 575 z"
               transform="scale(0.015625)" />
            <path
               id="DejaVuSans-Oblique-79"
               d="m 1588,-325 q -400,-672 -652,-839 -252,-167 -642,-167 h -453 l 96,481 h 332 q 240,0 409,131 169,131 378,513 l 178,334 -775,3372 h 610 L 1650,819 3256,3500 h 603 z"
               transform="scale(0.015625)" />
          </defs>
          <use
             xlink:href="#DejaVuSans-Oblique-45"
             transform="translate(0,0.78125)"
             id="use103" />
          <use
             xlink:href="#DejaVuSans-Oblique-54"
             transform="translate(63.183594,0.78125)"
             id="use104" />
          <use
             xlink:href="#DejaVuSans-Oblique-53"
             transform="translate(124.26758,0.78125)"
             id="use105" />
          <use
             xlink:href="#DejaVuSans-Oblique-70"
             transform="translate(187.74414,0.78125)"
             id="use106" />
          <use
             xlink:href="#DejaVuSans-Oblique-79"
             transform="translate(251.2207,0.78125)"
             id="use107" />
        </g>
      </g>
    </g>
  </g>
  <defs
     id="defs107">
    <clipPath
       id="p6573b7c4bb">
      <path
         d="m 161.60293,140.4 c 0,-10.138 -1.99696,-20.17743 -5.87661,-29.54372 -3.87964,-9.3663 -9.56652,-17.87731 -16.73517,-25.045961 -7.16865,-7.168651 -15.67967,-12.855528 -25.04596,-16.735174 -9.36629,-3.879646 -19.405719,-5.876612 -29.543723,-5.876612 -10.138004,0 -20.177428,1.996966 -29.543722,5.876612 C 45.49145,72.954791 36.980437,78.641668 29.811786,85.810319 22.643135,92.97897 16.956258,101.48998 13.076612,110.85628 9.196966,120.22257 7.2,130.262 7.2,140.4 c 0,10.138 1.996966,20.17743 5.876612,29.54372 3.879646,9.3663 9.566523,17.87731 16.735174,25.04596 7.168651,7.16865 15.679664,12.85553 25.045959,16.73517 9.366294,3.87965 19.405718,5.87662 29.543722,5.87662 10.138004,0 20.177433,-1.99697 29.543723,-5.87662 9.36629,-3.87964 17.87731,-9.56652 25.04596,-16.73517 7.16865,-7.16865 12.85553,-15.67966 16.73517,-25.04596 3.87965,-9.36629 5.87661,-19.40572 5.87661,-29.54372 m -77.201463,0 c 0,0 0,0 0,0 0,0 0,0 0,0 0,0 0,0 0,0 0,0 0,0 0,0 0,0 0,0 0,0 0,0 0,0 0,0 0,0 0,0 0,0 0,0 0,0 0,0 0,0 0,0 0,0 0,0 0,0 0,0 0,0 0,0 0,0 0,0 0,0 0,0 0,0 0,0 0,0 0,0 0,0 0,0 0,0 0,0 0,0 z"
         id="path107" />
    </clipPath>
  </defs>
</svg>
